<?xml version="1.0" encoding="utf-8"?>
<!-- Generator: Adobe Illustrator 18.1.0, SVG Export Plug-In . SVG Version: 6.00 Build 0)  -->
<!DOCTYPE svg PUBLIC "-//W3C//DTD SVG 1.1//EN" "http://www.w3.org/Graphics/SVG/1.1/DTD/svg11.dtd">
<svg version="1.1" id="Layer_1" xmlns="http://www.w3.org/2000/svg" xmlns:xlink="http://www.w3.org/1999/xlink" x="0px" y="0px"
	 viewBox="0 0 771.6 210.3" enable-background="new 0 0 771.6 210.3" xml:space="preserve">
<rect x="0" y="84" opacity="0.3" fill="#F9ED32" width="771.6" height="23"/>
<text transform="matrix(1 0 0 1 254.4549 128.4389)"><tspan x="0" y="0" fill="#27AAE1" font-family="'HelveticaNeue'" font-size="8">PORTRAIT </tspan><tspan x="-1.9" y="8" fill="#27AAE1" font-family="'HelveticaNeue'" font-size="8">LAYOUT #1</tspan></text>
<polyline fill="none" stroke="#27AAE1" stroke-miterlimit="10" points="337.4,107 337.4,113 208.4,113 208.4,107 "/>
<line fill="none" stroke="#27AAE1" stroke-miterlimit="10" x1="273.8" y1="113" x2="273.8" y2="119.8"/>
<text transform="matrix(1 0 0 1 397.2461 128.4389)"><tspan x="0" y="0" fill="#27AAE1" font-family="'HelveticaNeue'" font-size="8">PORTRAIT </tspan><tspan x="-1.9" y="8" fill="#27AAE1" font-family="'HelveticaNeue'" font-size="8">LAYOUT #2</tspan></text>
<polyline fill="none" stroke="#27AAE1" stroke-miterlimit="10" points="478.6,107 478.6,113 354.5,113 354.5,107 "/>
<line fill="none" stroke="#27AAE1" stroke-miterlimit="10" x1="416.6" y1="113" x2="416.6" y2="119.8"/>
<text transform="matrix(1 0 0 1 540.997 128.4389)"><tspan x="0" y="0" fill="#27AAE1" font-family="'HelveticaNeue'" font-size="8">LANDSCAPE </tspan><tspan x="2.4" y="8" fill="#27AAE1" font-family="'HelveticaNeue'" font-size="8">LAYOUT #1</tspan></text>
<polyline fill="none" stroke="#27AAE1" stroke-miterlimit="10" points="628.3,107 628.3,113 499.2,113 499.2,107 "/>
<line fill="none" stroke="#27AAE1" stroke-miterlimit="10" x1="564.6" y1="113" x2="564.6" y2="119.8"/>
<text transform="matrix(1 0 0 1 684.1447 128.4389)"><tspan x="0" y="0" fill="#27AAE1" font-family="'HelveticaNeue'" font-size="8">LANDSCAPE </tspan><tspan x="2.4" y="8" fill="#27AAE1" font-family="'HelveticaNeue'" font-size="8">LAYOUT #2</tspan></text>
<polyline fill="none" stroke="#27AAE1" stroke-miterlimit="10" points="768.1,107 768.1,113 647.4,113 647.4,107 "/>
<line fill="none" stroke="#27AAE1" stroke-miterlimit="10" x1="707.8" y1="113" x2="707.8" y2="119.8"/>
<polyline fill="none" stroke="#27AAE1" stroke-miterlimit="10" points="204.4,107 204.4,113 185.6,113 185.6,107 "/>
<line fill="none" stroke="#27AAE1" stroke-miterlimit="10" x1="195" y1="113" x2="195" y2="173.1"/>
<text transform="matrix(1 0 0 1 136.84 182.4388)"><tspan x="0" y="0" fill="#27AAE1" font-family="'HelveticaNeue'" font-size="8">FOR EXPANDABLE ADS ONLY:  </tspan><tspan x="-3.8" y="8" fill="#27AAE1" font-family="'HelveticaNeue'" font-size="8">THE “to” KEYWORD SEPARATES  </tspan><tspan x="-14.3" y="16" fill="#27AAE1" font-family="'HelveticaNeue'" font-size="8">COLLAPSED PANEL LAYOUT(S) FROM  </tspan><tspan x="1.9" y="24" fill="#27AAE1" font-family="'HelveticaNeue'" font-size="8">EXPANDED PANEL LAYOUT(S)</tspan></text>
<text transform="matrix(1 0 0 1 467.5893 164.2723)"><tspan x="0" y="0" fill="#27AAE1" font-family="'HelveticaNeue'" font-size="8">EXPANDED</tspan><tspan x="8.3" y="8" fill="#27AAE1" font-family="'HelveticaNeue'" font-size="8">PANEL</tspan></text>
<polyline fill="none" stroke="#27AAE1" stroke-miterlimit="10" points="768.1,118.4 768.1,150 208.4,150 208.4,118.4 "/>
<line fill="none" stroke="#27AAE1" stroke-miterlimit="10" x1="488.6" y1="150" x2="488.6" y2="156.5"/>
<text transform="matrix(1 0 0 1 196.168 47.8556)"><tspan x="0" y="0" fill="#27AAE1" font-family="'HelveticaNeue'" font-size="8">PORTRAIT</tspan><tspan x="-11" y="8" fill="#27AAE1" font-family="'HelveticaNeue'" font-size="8">LAYOUT PREFIX</tspan></text>
<polyline fill="none" stroke="#27AAE1" stroke-miterlimit="10" points="208.7,84.8 208.7,78.8 222.3,78.8 222.3,84.8 "/>
<line fill="none" stroke="#27AAE1" stroke-miterlimit="10" x1="215.5" y1="78.8" x2="215.5" y2="58.2"/>
<polyline fill="none" stroke="#27AAE1" stroke-miterlimit="10" points="498.1,84.8 498.1,78.8 511.7,78.8 511.7,84.8 "/>
<line fill="none" stroke="#27AAE1" stroke-miterlimit="10" x1="504.9" y1="78.8" x2="504.9" y2="55.2"/>
<text transform="matrix(1 0 0 1 425.5896 6.8558)"><tspan x="0" y="0" fill="#27AAE1" font-family="'HelveticaNeue'" font-size="8">THE “&amp;” SEPARATES LAYOUTS IN </tspan><tspan x="-4.7" y="8" fill="#27AAE1" font-family="'HelveticaNeue'" font-size="8">ORIENTATION-AWARE PANELS AND</tspan><tspan x="-8.4" y="16" fill="#27AAE1" font-family="'HelveticaNeue'" font-size="8">DENOTES THAT LAYOUTS FOR BOTH  </tspan><tspan x="4" y="24" fill="#27AAE1" font-family="'HelveticaNeue'" font-size="8">ORIENTATIONS ARE REQUIRED</tspan></text>
<polyline fill="none" stroke="#27AAE1" stroke-miterlimit="10" points="483,84.8 483,78.8 494.2,78.8 494.2,84.8 "/>
<line fill="none" stroke="#27AAE1" stroke-miterlimit="10" x1="488.6" y1="78.8" x2="488.6" y2="34.5"/>
<text transform="matrix(1 0 0 1 501.2395 43.7721)"><tspan x="0" y="0" fill="#27AAE1" font-family="'HelveticaNeue'" font-size="8">LANDSCAPE</tspan><tspan x="0" y="8" fill="#27AAE1" font-family="'HelveticaNeue'" font-size="8">LAYOUT PREFIX</tspan></text>
<text transform="matrix(1 0 0 1 539.3433 63.0223)"><tspan x="0" y="0" fill="#27AAE1" font-family="'HelveticaNeue'" font-size="8">WIDTH</tspan><tspan x="-1" y="8" fill="#27AAE1" font-family="'HelveticaNeue'" font-size="8">RANGE</tspan></text>
<polyline fill="none" stroke="#27AAE1" stroke-miterlimit="10" points="515.7,84.8 515.7,78.8 588.5,78.8 588.5,84.8 "/>
<line fill="none" stroke="#27AAE1" stroke-miterlimit="10" x1="552.1" y1="78.8" x2="552.1" y2="72.3"/>
<text transform="matrix(1 0 0 1 717.885 63.0223)"><tspan x="0" y="0" fill="#27AAE1" font-family="'HelveticaNeue'" font-size="8">WIDTH</tspan><tspan x="-1" y="8" fill="#27AAE1" font-family="'HelveticaNeue'" font-size="8">RANGE</tspan></text>
<polyline fill="none" stroke="#27AAE1" stroke-miterlimit="10" points="693.2,84.8 693.2,78.8 768,78.8 768,84.8 "/>
<line fill="none" stroke="#27AAE1" stroke-miterlimit="10" x1="730.6" y1="78.8" x2="730.6" y2="72.3"/>
<text transform="matrix(1 0 0 1 3.4582 101.189)"><tspan x="0" y="0" font-family="'HelveticaNeue-Light'" font-size="18">[300-320]x50 </tspan><tspan x="109.1" y="0" fill="#939598" font-family="'HelveticaNeue-LightItalic'" font-size="18">/</tspan><tspan x="115.1" y="0" font-family="'HelveticaNeue-Light'" font-size="18"> 728x90 </tspan><tspan x="183.8" y="0" fill="#939598" font-family="'HelveticaNeue-LightItalic'" font-size="18">to</tspan><tspan x="199.1" y="0" font-family="'HelveticaNeue-Light'" font-size="18"> P:320x[372-568] </tspan><tspan x="339.5" y="0" fill="#939598" font-family="'HelveticaNeue-LightItalic'" font-size="18">/</tspan><tspan x="345.5" y="0" font-family="'HelveticaNeue-Light'" font-size="18"> 768x[900-1024] </tspan><tspan x="479.6" y="0" fill="#939598" font-family="'HelveticaNeue-LightItalic'" font-size="18">&amp;</tspan><tspan x="490.6" y="0" font-family="'HelveticaNeue-Light'" font-size="18"> L:[480-568]x320 </tspan><tspan x="629.3" y="0" fill="#939598" font-family="'HelveticaNeue-LightItalic'" font-size="18">/</tspan><tspan x="635.3" y="0" font-family="'HelveticaNeue-Light'" font-size="18"> 1024x[644-768]</tspan></text>
<text transform="matrix(1 0 0 1 31.8798 128.4389)"><tspan x="0" y="0" fill="#27AAE1" font-family="'HelveticaNeue'" font-size="8">COLLAPSED </tspan><tspan x="2.2" y="8" fill="#27AAE1" font-family="'HelveticaNeue'" font-size="8">LAYOUT #1</tspan></text>
<polyline fill="none" stroke="#27AAE1" stroke-miterlimit="10" points="107.1,107 107.1,113 5,113 5,107 "/>
<line fill="none" stroke="#27AAE1" stroke-miterlimit="10" x1="55.3" y1="113" x2="55.3" y2="119.8"/>
<text transform="matrix(1 0 0 1 130.4632 128.4389)"><tspan x="0" y="0" fill="#27AAE1" font-family="'HelveticaNeue'" font-size="8">COLLAPSED </tspan><tspan x="2.2" y="8" fill="#27AAE1" font-family="'HelveticaNeue'" font-size="8">LAYOUT #2</tspan></text>
<polyline fill="none" stroke="#27AAE1" stroke-miterlimit="10" points="181.6,107 181.6,113 124.9,113 124.9,107 "/>
<line fill="none" stroke="#27AAE1" stroke-miterlimit="10" x1="153.9" y1="113" x2="153.9" y2="119.8"/>
<text transform="matrix(1 0 0 1 60.9126 164.2723)" fill="#27AAE1" font-family="'HelveticaNeue'" font-size="8">COLLAPSED PANEL</text>
<polyline fill="none" stroke="#27AAE1" stroke-miterlimit="10" points="181.6,118.4 181.6,150 4.9,150 4.9,118.4 "/>
<line fill="none" stroke="#27AAE1" stroke-miterlimit="10" x1="98.2" y1="150" x2="98.2" y2="156.5"/>
<text transform="matrix(1 0 0 1 126.5518 71.0221)" fill="#27AAE1" font-family="'HelveticaNeue'" font-size="8">WIDTH</text>
<text transform="matrix(1 0 0 1 157.8523 71.0223)" fill="#27AAE1" font-family="'HelveticaNeue'" font-size="8">HEIGHT</text>
<polyline fill="none" stroke="#27AAE1" stroke-miterlimit="10" points="124.7,84.8 124.7,78.8 153.9,78.8 153.9,84.8 "/>
<polyline fill="none" stroke="#27AAE1" stroke-miterlimit="10" points="163.3,84.8 163.3,78.8 181.6,78.8 181.6,84.8 "/>
<line fill="none" stroke="#27AAE1" stroke-miterlimit="10" x1="139.3" y1="78.8" x2="139.3" y2="72.3"/>
<line fill="none" stroke="#27AAE1" stroke-miterlimit="10" x1="172.4" y1="78.8" x2="172.4" y2="72.3"/>
<text transform="matrix(1 0 0 1 597.5369 71.0223)" fill="#27AAE1" font-family="'HelveticaNeue'" font-size="8">HEIGHT</text>
<polyline fill="none" stroke="#27AAE1" stroke-miterlimit="10" points="597.5,84.8 597.5,78.8 626.8,78.8 626.8,84.8 "/>
<line fill="none" stroke="#27AAE1" stroke-miterlimit="10" x1="612.1" y1="78.8" x2="612.1" y2="72.3"/>
<text transform="matrix(1 0 0 1 227.1351 71.0221)" fill="#27AAE1" font-family="'HelveticaNeue'" font-size="8">WIDTH</text>
<text transform="matrix(1 0 0 1 286.0606 62.0223)"><tspan x="0" y="0" fill="#27AAE1" font-family="'HelveticaNeue'" font-size="8">HEIGHT </tspan><tspan x="0.9" y="8" fill="#27AAE1" font-family="'HelveticaNeue'" font-size="8">RANGE</tspan></text>
<polyline fill="none" stroke="#27AAE1" stroke-miterlimit="10" points="225.3,84.8 225.3,78.8 254.5,78.8 254.5,84.8 "/>
<polyline fill="none" stroke="#27AAE1" stroke-miterlimit="10" points="263.9,84.8 263.9,78.8 337.4,78.8 337.4,84.8 "/>
<line fill="none" stroke="#27AAE1" stroke-miterlimit="10" x1="239.9" y1="78.8" x2="239.9" y2="72.3"/>
<text transform="matrix(1 0 0 1 652.2649 71.0221)" fill="#27AAE1" font-family="'HelveticaNeue'" font-size="8">WIDTH</text>
<polyline fill="none" stroke="#27AAE1" stroke-miterlimit="10" points="647.4,84.8 647.4,78.8 682.6,78.8 682.6,84.8 "/>
<line fill="none" stroke="#27AAE1" stroke-miterlimit="10" x1="665" y1="78.8" x2="665" y2="72.3"/>
<text transform="matrix(1 0 0 1 356.781 71.0221)" fill="#27AAE1" font-family="'HelveticaNeue'" font-size="8">WIDTH</text>
<polyline fill="none" stroke="#27AAE1" stroke-miterlimit="10" points="354.9,84.8 354.9,78.8 384.1,78.8 384.1,84.8 "/>
<line fill="none" stroke="#27AAE1" stroke-miterlimit="10" x1="369.5" y1="78.8" x2="369.5" y2="72.3"/>
<line fill="none" stroke="#27AAE1" stroke-miterlimit="10" x1="300.6" y1="78.8" x2="300.6" y2="72.3"/>
<text transform="matrix(1 0 0 1 421.6501 62.0223)"><tspan x="0" y="0" fill="#27AAE1" font-family="'HelveticaNeue'" font-size="8">HEIGHT </tspan><tspan x="0.9" y="8" fill="#27AAE1" font-family="'HelveticaNeue'" font-size="8">RANGE</tspan></text>
<polyline fill="none" stroke="#27AAE1" stroke-miterlimit="10" points="393.9,84.8 393.9,78.8 478.6,78.8 478.6,84.8 "/>
<line fill="none" stroke="#27AAE1" stroke-miterlimit="10" x1="436.2" y1="78.8" x2="436.2" y2="72.3"/>
<text transform="matrix(1 0 0 1 82.5784 71.0223)" fill="#27AAE1" font-family="'HelveticaNeue'" font-size="8">HEIGHT</text>
<polyline fill="none" stroke="#27AAE1" stroke-miterlimit="10" points="88.2,84.8 88.2,78.8 106.1,78.8 106.1,84.8 "/>
<line fill="none" stroke="#27AAE1" stroke-miterlimit="10" x1="97.2" y1="78.8" x2="97.2" y2="72.3"/>
<text transform="matrix(1 0 0 1 89.881 46.7723)" fill="#27AAE1" font-family="'HelveticaNeue'" font-size="8">BREAKPOINT</text>
<polyline fill="none" stroke="#27AAE1" stroke-miterlimit="10" points="109.1,84.8 109.1,78.8 120.7,78.8 120.7,84.8 "/>
<line fill="none" stroke="#27AAE1" stroke-miterlimit="10" x1="114.9" y1="78.8" x2="114.9" y2="50.2"/>
<text transform="matrix(1 0 0 1 321.1103 46.7723)" fill="#27AAE1" font-family="'HelveticaNeue'" font-size="8">BREAKPOINT</text>
<polyline fill="none" stroke="#27AAE1" stroke-miterlimit="10" points="340.4,84.8 340.4,78.8 351.9,78.8 351.9,84.8 "/>
<line fill="none" stroke="#27AAE1" stroke-miterlimit="10" x1="346.1" y1="78.8" x2="346.1" y2="50.2"/>
<text transform="matrix(1 0 0 1 611.5893 46.7723)" fill="#27AAE1" font-family="'HelveticaNeue'" font-size="8">BREAKPOINT</text>
<polyline fill="none" stroke="#27AAE1" stroke-miterlimit="10" points="630.8,84.8 630.8,78.8 642.4,78.8 642.4,84.8 "/>
<line fill="none" stroke="#27AAE1" stroke-miterlimit="10" x1="636.6" y1="78.8" x2="636.6" y2="50.2"/>
<text transform="matrix(1 0 0 1 31.4684 63.0223)"><tspan x="0" y="0" fill="#27AAE1" font-family="'HelveticaNeue'" font-size="8">WIDTH</tspan><tspan x="-1" y="8" fill="#27AAE1" font-family="'HelveticaNeue'" font-size="8">RANGE</tspan></text>
<polyline fill="none" stroke="#27AAE1" stroke-miterlimit="10" points="5.4,84.8 5.4,78.8 78.2,78.8 78.2,84.8 "/>
<line fill="none" stroke="#27AAE1" stroke-miterlimit="10" x1="44.2" y1="78.8" x2="44.2" y2="72.3"/>
</svg>
