<?xml version="1.0" encoding="utf-8"?>
<!-- Generator: Adobe Illustrator 18.1.0, SVG Export Plug-In . SVG Version: 6.00 Build 0)  -->
<!DOCTYPE svg PUBLIC "-//W3C//DTD SVG 1.1//EN" "http://www.w3.org/Graphics/SVG/1.1/DTD/svg11.dtd">
<svg version="1.1" id="Layer_1" xmlns="http://www.w3.org/2000/svg" xmlns:xlink="http://www.w3.org/1999/xlink" x="0px" y="0px"
	 viewBox="0 0 391 207" enable-background="new 0 0 391 207" xml:space="preserve">
<rect x="0" y="82.8" opacity="0.3" fill="#F9ED32" width="391" height="23"/>
<text transform="matrix(1 0 0 1 3.8333 100.4391)"><tspan x="0" y="0" font-family="'HelveticaNeue-Light'" font-size="18">300x250 </tspan><tspan x="73.7" y="0" fill="#939598" font-family="'HelveticaNeue-LightItalic'" font-size="18">to</tspan><tspan x="89" y="0" font-family="'HelveticaNeue-Light'" font-size="18"> P:768x[900-946] </tspan><tspan x="229.5" y="0" fill="#939598" font-family="'HelveticaNeue-LightItalic'" font-size="18">&amp;</tspan><tspan x="240.5" y="0" font-family="'HelveticaNeue-Light'" font-size="18"> L:1024x[644-690]</tspan></text>
<text transform="matrix(1 0 0 1 6.3436 71.0223)" fill="#27AAE1" font-family="'HelveticaNeue'" font-size="8">WIDTH</text>
<text transform="matrix(1 0 0 1 15.2345 155.0225)"><tspan x="0" y="0" fill="#27AAE1" font-family="'HelveticaNeue'" font-size="8">COLLAPSED</tspan><tspan x="10.7" y="8" fill="#27AAE1" font-family="'HelveticaNeue'" font-size="8">PANEL</tspan></text>
<text transform="matrix(1 0 0 1 145.5327 125.1891)"><tspan x="0" y="0" fill="#27AAE1" font-family="'HelveticaNeue'" font-size="8">PORTRAIT </tspan><tspan x="3.7" y="8" fill="#27AAE1" font-family="'HelveticaNeue'" font-size="8">LAYOUT</tspan></text>
<text transform="matrix(1 0 0 1 23.0555 125.1891)" fill="#27AAE1" font-family="'HelveticaNeue'" font-size="8">LAYOUT</text>
<text transform="matrix(1 0 0 1 43.7873 71.0225)" fill="#27AAE1" font-family="'HelveticaNeue'" font-size="8">HEIGHT</text>
<polyline fill="none" stroke="#27AAE1" stroke-miterlimit="10" points="4.5,84.8 4.5,78.8 33.7,78.8 33.7,84.8 "/>
<polyline fill="none" stroke="#27AAE1" stroke-miterlimit="10" points="44.1,84.8 44.1,78.8 72.7,78.8 72.7,84.8 "/>
<line fill="none" stroke="#27AAE1" stroke-miterlimit="10" x1="19.1" y1="78.8" x2="19.1" y2="72.3"/>
<polyline fill="none" stroke="#27AAE1" stroke-miterlimit="10" points="72.7,114.5 72.7,140.8 4.5,140.8 4.5,114.5 "/>
<polyline fill="none" stroke="#27AAE1" stroke-miterlimit="10" points="95.5,103.8 95.5,109.8 76.7,109.8 76.7,103.8 "/>
<polyline fill="none" stroke="#27AAE1" stroke-miterlimit="10" points="72.7,103.8 72.7,109.8 4.5,109.8 4.5,103.8 "/>
<line fill="none" stroke="#27AAE1" stroke-miterlimit="10" x1="38.7" y1="140.8" x2="38.7" y2="147.3"/>
<line fill="none" stroke="#27AAE1" stroke-miterlimit="10" x1="86.1" y1="109.8" x2="86.1" y2="169.9"/>
<polyline fill="none" stroke="#27AAE1" stroke-miterlimit="10" points="229.5,103.8 229.5,109.8 99.5,109.8 99.5,103.8 "/>
<line fill="none" stroke="#27AAE1" stroke-miterlimit="10" x1="164.9" y1="109.8" x2="164.9" y2="116.5"/>
<line fill="none" stroke="#27AAE1" stroke-miterlimit="10" x1="38.7" y1="109.8" x2="38.7" y2="116.5"/>
<text transform="matrix(1 0 0 1 295.2368 125.1891)"><tspan x="0" y="0" fill="#27AAE1" font-family="'HelveticaNeue'" font-size="8">LANDSCAPE </tspan><tspan x="8" y="8" fill="#27AAE1" font-family="'HelveticaNeue'" font-size="8">LAYOUT</tspan></text>
<polyline fill="none" stroke="#27AAE1" stroke-miterlimit="10" points="388.2,103.8 388.2,109.8 248.8,109.8 248.8,103.8 "/>
<line fill="none" stroke="#27AAE1" stroke-miterlimit="10" x1="318.9" y1="109.8" x2="318.9" y2="116.5"/>
<text transform="matrix(1 0 0 1 222.829 155.6475)"><tspan x="0" y="0" fill="#27AAE1" font-family="'HelveticaNeue'" font-size="8">EXPANDED</tspan><tspan x="8.3" y="8" fill="#27AAE1" font-family="'HelveticaNeue'" font-size="8">PANEL</tspan></text>
<text transform="matrix(1 0 0 1 27.9178 179.189)"><tspan x="0" y="0" fill="#27AAE1" font-family="'HelveticaNeue'" font-size="8">FOR EXPANDABLE ADS ONLY:  </tspan><tspan x="-3.8" y="8" fill="#27AAE1" font-family="'HelveticaNeue'" font-size="8">THE “to” KEYWORD SEPARATES  </tspan><tspan x="-14.3" y="16" fill="#27AAE1" font-family="'HelveticaNeue'" font-size="8">COLLAPSED PANEL LAYOUT(S) FROM  </tspan><tspan x="1.9" y="24" fill="#27AAE1" font-family="'HelveticaNeue'" font-size="8">EXPANDED PANEL LAYOUT(S)</tspan></text>
<polyline fill="none" stroke="#27AAE1" stroke-miterlimit="10" points="388.2,114.8 388.2,141.4 99.5,141.4 99.5,114.8 "/>
<line fill="none" stroke="#27AAE1" stroke-miterlimit="10" x1="243.9" y1="141.4" x2="243.9" y2="147.9"/>
<line fill="none" stroke="#27AAE1" stroke-miterlimit="10" x1="58.4" y1="78.8" x2="58.4" y2="72.3"/>
<text transform="matrix(1 0 0 1 86.5431 47.8558)"><tspan x="0" y="0" fill="#27AAE1" font-family="'HelveticaNeue'" font-size="8">PORTRAIT</tspan><tspan x="-11" y="8" fill="#27AAE1" font-family="'HelveticaNeue'" font-size="8">LAYOUT PREFIX</tspan></text>
<polyline fill="none" stroke="#27AAE1" stroke-miterlimit="10" points="99.1,84.8 99.1,78.8 112.7,78.8 112.7,84.8 "/>
<line fill="none" stroke="#27AAE1" stroke-miterlimit="10" x1="105.9" y1="78.8" x2="105.9" y2="58.2"/>
<text transform="matrix(1 0 0 1 175.2304 6.856)"><tspan x="0" y="0" fill="#27AAE1" font-family="'HelveticaNeue'" font-size="8">THE “&amp;” SEPARATES LAYOUTS IN </tspan><tspan x="-4.7" y="8" fill="#27AAE1" font-family="'HelveticaNeue'" font-size="8">ORIENTATION-AWARE PANELS AND</tspan><tspan x="-8.4" y="16" fill="#27AAE1" font-family="'HelveticaNeue'" font-size="8">DENOTES THAT LAYOUTS FOR BOTH  </tspan><tspan x="4" y="24" fill="#27AAE1" font-family="'HelveticaNeue'" font-size="8">ORIENTATIONS ARE REQUIRED</tspan></text>
<polyline fill="none" stroke="#27AAE1" stroke-miterlimit="10" points="232.7,84.8 232.7,78.8 243.9,78.8 243.9,84.8 "/>
<line fill="none" stroke="#27AAE1" stroke-miterlimit="10" x1="238.3" y1="78.8" x2="238.3" y2="34.5"/>
<text transform="matrix(1 0 0 1 252.25 47.8558)"><tspan x="0" y="0" fill="#27AAE1" font-family="'HelveticaNeue'" font-size="8">LANDSCAPE</tspan><tspan x="0" y="8" fill="#27AAE1" font-family="'HelveticaNeue'" font-size="8">LAYOUT PREFIX</tspan></text>
<polyline fill="none" stroke="#27AAE1" stroke-miterlimit="10" points="248.8,84.8 248.8,78.8 262.4,78.8 262.4,84.8 "/>
<line fill="none" stroke="#27AAE1" stroke-miterlimit="10" x1="255.6" y1="78.8" x2="255.6" y2="58.2"/>
<text transform="matrix(1 0 0 1 117.9269 71.0223)" fill="#27AAE1" font-family="'HelveticaNeue'" font-size="8">WIDTH</text>
<text transform="matrix(1 0 0 1 179.912 63.0225)"><tspan x="0" y="0" fill="#27AAE1" font-family="'HelveticaNeue'" font-size="8">HEIGHT</tspan><tspan x="0.9" y="8" fill="#27AAE1" font-family="'HelveticaNeue'" font-size="8">RANGE</tspan></text>
<polyline fill="none" stroke="#27AAE1" stroke-miterlimit="10" points="116.1,84.8 116.1,78.8 144.2,78.8 144.2,84.8 "/>
<polyline fill="none" stroke="#27AAE1" stroke-miterlimit="10" points="153.7,84.8 153.7,78.8 229.5,78.8 229.5,84.8 "/>
<line fill="none" stroke="#27AAE1" stroke-miterlimit="10" x1="130.7" y1="78.8" x2="130.7" y2="72.3"/>
<line fill="none" stroke="#27AAE1" stroke-miterlimit="10" x1="194.5" y1="78.8" x2="194.5" y2="72.3"/>
<text transform="matrix(1 0 0 1 270.9269 71.0223)" fill="#27AAE1" font-family="'HelveticaNeue'" font-size="8">WIDTH</text>
<text transform="matrix(1 0 0 1 336.3706 63.0225)"><tspan x="0" y="0" fill="#27AAE1" font-family="'HelveticaNeue'" font-size="8">HEIGHT </tspan><tspan x="0.9" y="8" fill="#27AAE1" font-family="'HelveticaNeue'" font-size="8">RANGE</tspan></text>
<polyline fill="none" stroke="#27AAE1" stroke-miterlimit="10" points="266.1,84.8 266.1,78.8 302.2,78.8 302.2,84.8 "/>
<polyline fill="none" stroke="#27AAE1" stroke-miterlimit="10" points="313.7,84.8 313.7,78.8 388.2,78.8 388.2,84.8 "/>
<line fill="none" stroke="#27AAE1" stroke-miterlimit="10" x1="283.7" y1="78.8" x2="283.7" y2="72.3"/>
<line fill="none" stroke="#27AAE1" stroke-miterlimit="10" x1="351" y1="78.8" x2="351" y2="72.3"/>
</svg>
