<?xml version="1.0" encoding="utf-8"?>
<!-- Generator: Adobe Illustrator 18.1.0, SVG Export Plug-In . SVG Version: 6.00 Build 0)  -->
<!DOCTYPE svg PUBLIC "-//W3C//DTD SVG 1.1//EN" "http://www.w3.org/Graphics/SVG/1.1/DTD/svg11.dtd">
<svg version="1.1" id="Layer_1" xmlns="http://www.w3.org/2000/svg" xmlns:xlink="http://www.w3.org/1999/xlink" x="0px" y="0px"
	 viewBox="0 0 159 141.9" enable-background="new 0 0 159 141.9" xml:space="preserve">
<rect x="0" y="18.9" opacity="0.3" fill="#F9ED32" width="159" height="23"/>
<text transform="matrix(1 0 0 1 3.8333 36.2726)"><tspan x="0" y="0" font-family="'HelveticaNeue-Light'" font-size="18">300x50 </tspan><tspan x="63.7" y="0" fill="#939598" font-family="'HelveticaNeue-LightItalic'" font-size="18">to</tspan><tspan x="79" y="0" font-family="'HelveticaNeue-Light'" font-size="18"> 300x300</tspan></text>
<text transform="matrix(1 0 0 1 5.6769 6.8558)" fill="#27AAE1" font-family="'HelveticaNeue'" font-size="8">WIDTH</text>
<text transform="matrix(1 0 0 1 9.5678 85.9391)"><tspan x="0" y="0" fill="#27AAE1" font-family="'HelveticaNeue'" font-size="8">COLLAPSED</tspan><tspan x="10.7" y="8" fill="#27AAE1" font-family="'HelveticaNeue'" font-size="8">PANEL</tspan></text>
<text transform="matrix(1 0 0 1 38.1206 6.856)" fill="#27AAE1" font-family="'HelveticaNeue'" font-size="8">HEIGHT</text>
<polyline fill="none" stroke="#27AAE1" stroke-miterlimit="10" points="3.8,20.6 3.8,14.6 33,14.6 33,20.6 "/>
<polyline fill="none" stroke="#27AAE1" stroke-miterlimit="10" points="43.4,20.6 43.4,14.6 62,14.6 62,20.6 "/>
<line fill="none" stroke="#27AAE1" stroke-miterlimit="10" x1="18.4" y1="14.6" x2="18.4" y2="8.1"/>
<polyline fill="none" stroke="#27AAE1" stroke-miterlimit="10" points="62,48.9 62,71.7 3.8,71.7 3.8,48.9 "/>
<polyline fill="none" stroke="#27AAE1" stroke-miterlimit="10" points="84.8,39.6 84.8,45.6 66,45.6 66,39.6 "/>
<line fill="none" stroke="#27AAE1" stroke-miterlimit="10" x1="33" y1="71.7" x2="33" y2="78.2"/>
<text transform="matrix(1 0 0 1 17.3476 59.856)" fill="#27AAE1" font-family="'HelveticaNeue'" font-size="8">LAYOUT</text>
<polyline fill="none" stroke="#27AAE1" stroke-miterlimit="10" points="62,39.6 62,45.6 3.8,45.6 3.8,39.6 "/>
<line fill="none" stroke="#27AAE1" stroke-miterlimit="10" x1="33" y1="45.6" x2="33" y2="52.1"/>
<line fill="none" stroke="#27AAE1" stroke-miterlimit="10" x1="75.4" y1="45.6" x2="75.4" y2="104.7"/>
<text transform="matrix(1 0 0 1 101.558 85.9391)"><tspan x="0" y="0" fill="#27AAE1" font-family="'HelveticaNeue'" font-size="8">EXPANDED</tspan><tspan x="8.3" y="8" fill="#27AAE1" font-family="'HelveticaNeue'" font-size="8">PANEL</tspan></text>
<text transform="matrix(1 0 0 1 17.2511 114.0226)"><tspan x="0" y="0" fill="#27AAE1" font-family="'HelveticaNeue'" font-size="8">FOR EXPANDABLE ADS ONLY:  </tspan><tspan x="-3.8" y="8" fill="#27AAE1" font-family="'HelveticaNeue'" font-size="8">THE “to” KEYWORD SEPARATES  </tspan><tspan x="-14.3" y="16" fill="#27AAE1" font-family="'HelveticaNeue'" font-size="8">COLLAPSED PANEL LAYOUT(S) FROM  </tspan><tspan x="1.9" y="24" fill="#27AAE1" font-family="'HelveticaNeue'" font-size="8">EXPANDED PANEL LAYOUT(S)</tspan></text>
<polyline fill="none" stroke="#27AAE1" stroke-miterlimit="10" points="155.3,48.9 155.3,71.7 89.8,71.7 89.8,48.9 "/>
<line fill="none" stroke="#27AAE1" stroke-miterlimit="10" x1="122.6" y1="71.7" x2="122.6" y2="78.2"/>
<text transform="matrix(1 0 0 1 106.9619 59.856)" fill="#27AAE1" font-family="'HelveticaNeue'" font-size="8">LAYOUT</text>
<polyline fill="none" stroke="#27AAE1" stroke-miterlimit="10" points="155.3,39.6 155.3,45.6 89.8,45.6 89.8,39.6 "/>
<line fill="none" stroke="#27AAE1" stroke-miterlimit="10" x1="122.6" y1="45.6" x2="122.6" y2="52.1"/>
<line fill="none" stroke="#27AAE1" stroke-miterlimit="10" x1="52.7" y1="14.6" x2="52.7" y2="8.1"/>
<text transform="matrix(1 0 0 1 91.0103 6.8558)" fill="#27AAE1" font-family="'HelveticaNeue'" font-size="8">WIDTH</text>
<text transform="matrix(1 0 0 1 126.9538 6.856)" fill="#27AAE1" font-family="'HelveticaNeue'" font-size="8">HEIGHT</text>
<polyline fill="none" stroke="#27AAE1" stroke-miterlimit="10" points="89.2,20.6 89.2,14.6 117.3,14.6 117.3,20.6 "/>
<polyline fill="none" stroke="#27AAE1" stroke-miterlimit="10" points="127.8,20.6 127.8,14.6 155.3,14.6 155.3,20.6 "/>
<line fill="none" stroke="#27AAE1" stroke-miterlimit="10" x1="103.8" y1="14.6" x2="103.8" y2="8.1"/>
<line fill="none" stroke="#27AAE1" stroke-miterlimit="10" x1="141.5" y1="14.6" x2="141.5" y2="8.1"/>
</svg>
