<?xml version="1.0" encoding="utf-8"?>
<!-- Generator: Adobe Illustrator 18.1.0, SVG Export Plug-In . SVG Version: 6.00 Build 0)  -->
<!DOCTYPE svg PUBLIC "-//W3C//DTD SVG 1.1//EN" "http://www.w3.org/Graphics/SVG/1.1/DTD/svg11.dtd">
<svg version="1.1" id="Layer_1" xmlns="http://www.w3.org/2000/svg" xmlns:xlink="http://www.w3.org/1999/xlink" x="0px" y="0px"
	 viewBox="0 0 110.7 115" enable-background="new 0 0 110.7 115" xml:space="preserve">
<rect x="17.1" y="49" opacity="0.3" fill="#F9ED32" width="74.5" height="23"/>
<text transform="matrix(1 0 0 1 20.5674 66.4391)" font-family="'HelveticaNeue-Light'" font-size="18">300x250</text>
<text transform="matrix(1 0 0 1 22.411 41.0223)" fill="#27AAE1" font-family="'HelveticaNeue'" font-size="8">WIDTH</text>
<text transform="matrix(1 0 0 1 39.3107 87.0225)" fill="#27AAE1" font-family="'HelveticaNeue'" font-size="8">LAYOUT</text>
<text transform="matrix(1 0 0 1 60.1462 41.0225)" fill="#27AAE1" font-family="'HelveticaNeue'" font-size="8">HEIGHT</text>
<polyline fill="none" stroke="#27AAE1" stroke-miterlimit="10" points="20.6,50.8 20.6,46.8 49.7,46.8 49.7,50.8 "/>
<polyline fill="none" stroke="#27AAE1" stroke-miterlimit="10" points="60.2,50.8 60.2,46.8 89.3,46.8 89.3,50.8 "/>
<line fill="none" stroke="#27AAE1" stroke-miterlimit="10" x1="35.2" y1="46.8" x2="35.2" y2="42.3"/>
<polyline fill="none" stroke="#27AAE1" stroke-miterlimit="10" points="89.3,69.8 89.3,74.8 20.6,74.8 20.6,69.8 "/>
<line fill="none" stroke="#27AAE1" stroke-miterlimit="10" x1="55" y1="74.8" x2="55" y2="79.3"/>
<text transform="matrix(1 0 0 1 42.2028 111.1058)" fill="#27AAE1" font-family="'HelveticaNeue'" font-size="8">PANEL</text>
<polyline fill="none" stroke="#27AAE1" stroke-miterlimit="10" points="89.3,78.9 89.3,98.9 20.6,98.9 20.6,78.9 "/>
<line fill="none" stroke="#27AAE1" stroke-miterlimit="10" x1="55" y1="98.9" x2="55" y2="103.4"/>
<line fill="none" stroke="#27AAE1" stroke-miterlimit="10" x1="74.7" y1="46.8" x2="74.7" y2="42.3"/>
<text transform="matrix(1 0 0 1 -0.6641 6.8558)"><tspan x="0" y="0" fill="#27AAE1" font-family="'HelveticaNeue'" font-size="8">THE “x” SYMBOL SEPARATES</tspan><tspan x="4.7" y="8" fill="#27AAE1" font-family="'HelveticaNeue'" font-size="8">WIDTH DIMENSIONS FROM</tspan><tspan x="15.5" y="16" fill="#27AAE1" font-family="'HelveticaNeue'" font-size="8">HEIGHT DIMENSIONS</tspan></text>
<line fill="none" stroke="#27AAE1" stroke-miterlimit="10" x1="54.9" y1="50.8" x2="54.9" y2="26.5"/>
</svg>
