<?xml version="1.0" encoding="utf-8"?>
<!-- Generator: Adobe Illustrator 18.1.0, SVG Export Plug-In . SVG Version: 6.00 Build 0)  -->
<!DOCTYPE svg PUBLIC "-//W3C//DTD SVG 1.1//EN" "http://www.w3.org/Graphics/SVG/1.1/DTD/svg11.dtd">
<svg version="1.1" id="Layer_1" xmlns="http://www.w3.org/2000/svg" xmlns:xlink="http://www.w3.org/1999/xlink" x="0px" y="0px"
	 viewBox="0 0 257.6 137.5" enable-background="new 0 0 257.6 137.5" xml:space="preserve">
<rect x="0" y="53.4" opacity="0.3" fill="#F9ED32" width="257.6" height="26.4"/>
<text transform="matrix(1 0 0 1 3.9725 74.27)"><tspan x="0" y="0" font-family="'HelveticaNeue-Light'" font-size="20.6733">300x50 </tspan><tspan x="73.2" y="0" fill="#939598" font-family="'HelveticaNeue-LightItalic'" font-size="20.6733">/</tspan><tspan x="80" y="0" font-family="'HelveticaNeue-Light'" font-size="20.6733"> 320x50 </tspan><tspan x="159" y="0" fill="#939598" font-family="'HelveticaNeue-LightItalic'" font-size="20.6733">/</tspan><tspan x="165.8" y="0" font-family="'HelveticaNeue-Light'" font-size="20.6733"> 300x250</tspan></text>
<text transform="matrix(1 0 0 1 15.0213 102.6958)" fill="#27AAE1" font-family="'HelveticaNeue'" font-size="9.1881">LAYOUT #1</text>
<polyline fill="none" stroke="#27AAE1" stroke-width="1.1485" stroke-miterlimit="10" points="70.7,78.1 70.7,85 5.8,85 5.8,78.1 
	"/>
<line fill="none" stroke="#27AAE1" stroke-width="1.1485" stroke-miterlimit="10" x1="38.2" y1="85" x2="38.2" y2="92.7"/>
<text transform="matrix(1 0 0 1 99.8446 102.6958)" fill="#27AAE1" font-family="'HelveticaNeue'" font-size="9.1881">LAYOUT #2</text>
<polyline fill="none" stroke="#27AAE1" stroke-width="1.1485" stroke-miterlimit="10" points="155.5,78.1 155.5,85 90.6,85 
	90.6,78.1 "/>
<line fill="none" stroke="#27AAE1" stroke-width="1.1485" stroke-miterlimit="10" x1="124.2" y1="85" x2="124.2" y2="92.7"/>
<text transform="matrix(1 0 0 1 192.0126 102.6958)" fill="#27AAE1" font-family="'HelveticaNeue'" font-size="9.1881">LAYOUT #3</text>
<polyline fill="none" stroke="#27AAE1" stroke-width="1.1485" stroke-miterlimit="10" points="253.4,78.1 253.4,85 175.9,85 
	175.9,78.1 "/>
<line fill="none" stroke="#27AAE1" stroke-width="1.1485" stroke-miterlimit="10" x1="216.4" y1="85" x2="216.4" y2="92.7"/>
<text transform="matrix(1 0 0 1 107.6737 133.8018)" fill="#27AAE1" font-family="'HelveticaNeue'" font-size="9.1881">PANEL</text>
<polyline fill="none" stroke="#27AAE1" stroke-width="1.1485" stroke-miterlimit="10" points="253.4,91.5 253.4,117.4 5.7,117.4 
	5.7,91.5 "/>
<line fill="none" stroke="#27AAE1" stroke-width="1.1485" stroke-miterlimit="10" x1="122.3" y1="117.4" x2="122.3" y2="124.9"/>
<text transform="matrix(1 0 0 1 177.9833 38.7144)" fill="#27AAE1" font-family="'HelveticaNeue'" font-size="9.1881">WIDTH</text>
<text transform="matrix(1 0 0 1 219.8407 38.7144)" fill="#27AAE1" font-family="'HelveticaNeue'" font-size="9.1881">HEIGHT</text>
<polyline fill="none" stroke="#27AAE1" stroke-width="1.1485" stroke-miterlimit="10" points="175.9,54.5 175.9,47.6 209.4,47.6 
	209.4,54.5 "/>
<polyline fill="none" stroke="#27AAE1" stroke-width="1.1485" stroke-miterlimit="10" points="220.2,54.5 220.2,47.6 252.5,47.6 
	252.5,54.5 "/>
<line fill="none" stroke="#27AAE1" stroke-width="1.1485" stroke-miterlimit="10" x1="192.6" y1="47.6" x2="192.6" y2="40.1"/>
<line fill="none" stroke="#27AAE1" stroke-width="1.1485" stroke-miterlimit="10" x1="236.6" y1="47.6" x2="236.6" y2="40.1"/>
<text transform="matrix(1 0 0 1 92.1317 38.7144)" fill="#27AAE1" font-family="'HelveticaNeue'" font-size="9.1881">WIDTH</text>
<text transform="matrix(1 0 0 1 128.4369 38.7144)" fill="#27AAE1" font-family="'HelveticaNeue'" font-size="9.1881">HEIGHT</text>
<polyline fill="none" stroke="#27AAE1" stroke-width="1.1485" stroke-miterlimit="10" points="90.6,54.5 90.6,47.6 122.9,47.6 
	122.9,54.5 "/>
<polyline fill="none" stroke="#27AAE1" stroke-width="1.1485" stroke-miterlimit="10" points="134.9,54.5 134.9,47.6 155.5,47.6 
	155.5,54.5 "/>
<line fill="none" stroke="#27AAE1" stroke-width="1.1485" stroke-miterlimit="10" x1="106.2" y1="47.6" x2="106.2" y2="40.1"/>
<line fill="none" stroke="#27AAE1" stroke-width="1.1485" stroke-miterlimit="10" x1="145.2" y1="47.6" x2="145.2" y2="40.1"/>
<text transform="matrix(1 0 0 1 6.3758 38.7144)" fill="#27AAE1" font-family="'HelveticaNeue'" font-size="9.1881">WIDTH</text>
<text transform="matrix(1 0 0 1 42.681 38.7144)" fill="#27AAE1" font-family="'HelveticaNeue'" font-size="9.1881">HEIGHT</text>
<polyline fill="none" stroke="#27AAE1" stroke-width="1.1485" stroke-miterlimit="10" points="4.8,54.5 4.8,47.6 37.2,47.6 
	37.2,54.5 "/>
<polyline fill="none" stroke="#27AAE1" stroke-width="1.1485" stroke-miterlimit="10" points="49.1,54.5 49.1,47.6 69.7,47.6 
	69.7,54.5 "/>
<line fill="none" stroke="#27AAE1" stroke-width="1.1485" stroke-miterlimit="10" x1="59.4" y1="47.6" x2="59.4" y2="40.1"/>
<text transform="matrix(1 0 0 1 137.0155 10.8628)" fill="#27AAE1" font-family="'HelveticaNeue'" font-size="9.1881">BREAKPOINT</text>
<polyline fill="none" stroke="#27AAE1" stroke-width="1.1485" stroke-miterlimit="10" points="159.1,54.5 159.1,47.6 172.4,47.6 
	172.4,54.5 "/>
<line fill="none" stroke="#27AAE1" stroke-width="1.1485" stroke-miterlimit="10" x1="165.8" y1="47.6" x2="165.8" y2="14.8"/>
<text transform="matrix(1 0 0 1 51.451 10.8628)" fill="#27AAE1" font-family="'HelveticaNeue'" font-size="9.1881">BREAKPOINT</text>
<polyline fill="none" stroke="#27AAE1" stroke-width="1.1485" stroke-miterlimit="10" points="73.6,54.5 73.6,47.6 86.9,47.6 
	86.9,54.5 "/>
<line fill="none" stroke="#27AAE1" stroke-width="1.1485" stroke-miterlimit="10" x1="80.2" y1="47.6" x2="80.2" y2="14.8"/>
</svg>
