<?xml version="1.0" encoding="utf-8"?>
<!-- Generator: Adobe Illustrator 18.1.0, SVG Export Plug-In . SVG Version: 6.00 Build 0)  -->
<!DOCTYPE svg PUBLIC "-//W3C//DTD SVG 1.1//EN" "http://www.w3.org/Graphics/SVG/1.1/DTD/svg11.dtd">
<svg version="1.1" id="Layer_1" xmlns="http://www.w3.org/2000/svg" xmlns:xlink="http://www.w3.org/1999/xlink" x="0px" y="0px"
	 viewBox="0 0 312 205" enable-background="new 0 0 312 205" xml:space="preserve">
<rect x="4.5" y="78.8" opacity="0.3" fill="#F9ED32" width="312" height="23"/>
<text transform="matrix(1 0 0 1 4.5 98.4391)"><tspan x="0" y="0" font-family="'HelveticaNeue-Light'" font-size="18">300x250 </tspan><tspan x="73.7" y="0" fill="#939598" font-family="'HelveticaNeue-LightItalic'" font-size="18">to</tspan><tspan x="89" y="0" font-family="'HelveticaNeue-Light'" font-size="18"> P:768x1024 </tspan><tspan x="194.1" y="0" fill="#939598" font-family="'HelveticaNeue-LightItalic'" font-size="18">&amp;</tspan><tspan x="205.1" y="0" font-family="'HelveticaNeue-Light'" font-size="18"> L:1024x768</tspan></text>
<text transform="matrix(1 0 0 1 6.3436 69.0223)" fill="#27AAE1" font-family="'HelveticaNeue'" font-size="8">WIDTH</text>
<text transform="matrix(1 0 0 1 15.2345 153.0225)"><tspan x="0" y="0" fill="#27AAE1" font-family="'HelveticaNeue'" font-size="8">COLLAPSED</tspan><tspan x="10.7" y="8" fill="#27AAE1" font-family="'HelveticaNeue'" font-size="8">PANEL</tspan></text>
<text transform="matrix(1 0 0 1 127.5327 123.1891)"><tspan x="0" y="0" fill="#27AAE1" font-family="'HelveticaNeue'" font-size="8">PORTRAIT </tspan><tspan x="3.7" y="8" fill="#27AAE1" font-family="'HelveticaNeue'" font-size="8">LAYOUT</tspan></text>
<text transform="matrix(1 0 0 1 23.0555 123.1891)" fill="#27AAE1" font-family="'HelveticaNeue'" font-size="8">LAYOUT</text>
<text transform="matrix(1 0 0 1 43.7873 69.0225)" fill="#27AAE1" font-family="'HelveticaNeue'" font-size="8">HEIGHT</text>
<polyline fill="none" stroke="#27AAE1" stroke-miterlimit="10" points="4.5,82.8 4.5,76.8 33.7,76.8 33.7,82.8 "/>
<polyline fill="none" stroke="#27AAE1" stroke-miterlimit="10" points="44.1,82.8 44.1,76.8 72.7,76.8 72.7,82.8 "/>
<line fill="none" stroke="#27AAE1" stroke-miterlimit="10" x1="19.1" y1="76.8" x2="19.1" y2="70.3"/>
<polyline fill="none" stroke="#27AAE1" stroke-miterlimit="10" points="72.7,112.5 72.7,138.8 4.5,138.8 4.5,112.5 "/>
<polyline fill="none" stroke="#27AAE1" stroke-miterlimit="10" points="95.5,101.8 95.5,107.8 76.7,107.8 76.7,101.8 "/>
<polyline fill="none" stroke="#27AAE1" stroke-miterlimit="10" points="72.7,101.8 72.7,107.8 4.5,107.8 4.5,101.8 "/>
<line fill="none" stroke="#27AAE1" stroke-miterlimit="10" x1="38.7" y1="138.8" x2="38.7" y2="145.3"/>
<line fill="none" stroke="#27AAE1" stroke-miterlimit="10" x1="86.1" y1="107.8" x2="86.1" y2="167.9"/>
<polyline fill="none" stroke="#27AAE1" stroke-miterlimit="10" points="193.2,101.8 193.2,107.8 99.5,107.8 99.5,101.8 "/>
<line fill="none" stroke="#27AAE1" stroke-miterlimit="10" x1="146.9" y1="107.8" x2="146.9" y2="114.5"/>
<line fill="none" stroke="#27AAE1" stroke-miterlimit="10" x1="38.7" y1="107.8" x2="38.7" y2="114.5"/>
<text transform="matrix(1 0 0 1 237.9868 123.1891)"><tspan x="0" y="0" fill="#27AAE1" font-family="'HelveticaNeue'" font-size="8">LANDSCAPE </tspan><tspan x="8" y="8" fill="#27AAE1" font-family="'HelveticaNeue'" font-size="8">LAYOUT</tspan></text>
<polyline fill="none" stroke="#27AAE1" stroke-miterlimit="10" points="308,101.8 308,107.8 214.2,107.8 214.2,101.8 "/>
<line fill="none" stroke="#27AAE1" stroke-miterlimit="10" x1="261.6" y1="107.8" x2="261.6" y2="114.5"/>
<text transform="matrix(1 0 0 1 183.2041 153.6475)"><tspan x="0" y="0" fill="#27AAE1" font-family="'HelveticaNeue'" font-size="8">EXPANDED</tspan><tspan x="8.3" y="8" fill="#27AAE1" font-family="'HelveticaNeue'" font-size="8">PANEL</tspan></text>
<text transform="matrix(1 0 0 1 27.9178 177.189)"><tspan x="0" y="0" fill="#27AAE1" font-family="'HelveticaNeue'" font-size="8">FOR EXPANDABLE ADS ONLY:  </tspan><tspan x="-3.8" y="8" fill="#27AAE1" font-family="'HelveticaNeue'" font-size="8">THE “to” KEYWORD SEPARATES  </tspan><tspan x="-14.3" y="16" fill="#27AAE1" font-family="'HelveticaNeue'" font-size="8">COLLAPSED PANEL LAYOUT(S) FROM  </tspan><tspan x="1.9" y="24" fill="#27AAE1" font-family="'HelveticaNeue'" font-size="8">EXPANDED PANEL LAYOUT(S)</tspan></text>
<polyline fill="none" stroke="#27AAE1" stroke-miterlimit="10" points="308,112.8 308,139.4 99.5,139.4 99.5,112.8 "/>
<line fill="none" stroke="#27AAE1" stroke-miterlimit="10" x1="204.2" y1="139.4" x2="204.2" y2="145.9"/>
<line fill="none" stroke="#27AAE1" stroke-miterlimit="10" x1="58.4" y1="76.8" x2="58.4" y2="70.3"/>
<text transform="matrix(1 0 0 1 86.5431 45.8558)"><tspan x="0" y="0" fill="#27AAE1" font-family="'HelveticaNeue'" font-size="8">PORTRAIT</tspan><tspan x="-11" y="8" fill="#27AAE1" font-family="'HelveticaNeue'" font-size="8">LAYOUT PREFIX</tspan></text>
<polyline fill="none" stroke="#27AAE1" stroke-miterlimit="10" points="99.1,82.8 99.1,76.8 112.7,76.8 112.7,82.8 "/>
<line fill="none" stroke="#27AAE1" stroke-miterlimit="10" x1="105.9" y1="76.8" x2="105.9" y2="56.2"/>
<text transform="matrix(1 0 0 1 122.9204 6.8558)"><tspan x="0" y="0" fill="#27AAE1" font-family="'HelveticaNeue'" font-size="8">THE “&amp;” SYMBOL SEPARATES LAYOUTS IN </tspan><tspan x="13" y="8" fill="#27AAE1" font-family="'HelveticaNeue'" font-size="8">ORIENTATION-AWARE PANELS AND</tspan><tspan x="9.4" y="16" fill="#27AAE1" font-family="'HelveticaNeue'" font-size="8">DENOTES THAT LAYOUTS FOR BOTH  </tspan><tspan x="21.8" y="24" fill="#27AAE1" font-family="'HelveticaNeue'" font-size="8">ORIENTATIONS ARE REQUIRED</tspan></text>
<polyline fill="none" stroke="#27AAE1" stroke-miterlimit="10" points="196.9,82.8 196.9,76.8 210.5,76.8 210.5,82.8 "/>
<line fill="none" stroke="#27AAE1" stroke-miterlimit="10" x1="203.7" y1="76.8" x2="203.7" y2="33.5"/>
<text transform="matrix(1 0 0 1 217 45.8558)"><tspan x="0" y="0" fill="#27AAE1" font-family="'HelveticaNeue'" font-size="8">LANDSCAPE</tspan><tspan x="0" y="8" fill="#27AAE1" font-family="'HelveticaNeue'" font-size="8">LAYOUT PREFIX</tspan></text>
<polyline fill="none" stroke="#27AAE1" stroke-miterlimit="10" points="213.5,82.8 213.5,76.8 227.1,76.8 227.1,82.8 "/>
<line fill="none" stroke="#27AAE1" stroke-miterlimit="10" x1="220.3" y1="76.8" x2="220.3" y2="56.2"/>
<text transform="matrix(1 0 0 1 117.9269 69.0223)" fill="#27AAE1" font-family="'HelveticaNeue'" font-size="8">WIDTH</text>
<text transform="matrix(1 0 0 1 160.8704 69.0225)" fill="#27AAE1" font-family="'HelveticaNeue'" font-size="8">HEIGHT</text>
<polyline fill="none" stroke="#27AAE1" stroke-miterlimit="10" points="116.1,82.8 116.1,76.8 144.2,76.8 144.2,82.8 "/>
<polyline fill="none" stroke="#27AAE1" stroke-miterlimit="10" points="156.7,82.8 156.7,76.8 193.2,76.8 193.2,82.8 "/>
<line fill="none" stroke="#27AAE1" stroke-miterlimit="10" x1="130.7" y1="76.8" x2="130.7" y2="70.3"/>
<line fill="none" stroke="#27AAE1" stroke-miterlimit="10" x1="175.5" y1="76.8" x2="175.5" y2="70.3"/>
<text transform="matrix(1 0 0 1 235.6769 69.0223)" fill="#27AAE1" font-family="'HelveticaNeue'" font-size="8">WIDTH</text>
<text transform="matrix(1 0 0 1 279.6204 69.0225)" fill="#27AAE1" font-family="'HelveticaNeue'" font-size="8">HEIGHT</text>
<polyline fill="none" stroke="#27AAE1" stroke-miterlimit="10" points="230.8,82.8 230.8,76.8 267,76.8 267,82.8 "/>
<polyline fill="none" stroke="#27AAE1" stroke-miterlimit="10" points="278.4,82.8 278.4,76.8 308,76.8 308,82.8 "/>
<line fill="none" stroke="#27AAE1" stroke-miterlimit="10" x1="248.4" y1="76.8" x2="248.4" y2="70.3"/>
<line fill="none" stroke="#27AAE1" stroke-miterlimit="10" x1="294.2" y1="76.8" x2="294.2" y2="70.3"/>
</svg>
