<?xml version="1.0" encoding="utf-8"?>
<!-- Generator: Adobe Illustrator 18.1.0, SVG Export Plug-In . SVG Version: 6.00 Build 0)  -->
<!DOCTYPE svg PUBLIC "-//W3C//DTD SVG 1.1//EN" "http://www.w3.org/Graphics/SVG/1.1/DTD/svg11.dtd">
<svg version="1.1" id="Layer_1" xmlns="http://www.w3.org/2000/svg" xmlns:xlink="http://www.w3.org/1999/xlink" x="0px" y="0px"
	 viewBox="0 0 196.7 119.2" enable-background="new 0 0 196.7 119.2" xml:space="preserve">
<rect x="0" y="44.1" opacity="0.3" fill="#F9ED32" width="196.7" height="23"/>
<text transform="matrix(1 0 0 1 3.4582 61.2729)"><tspan x="0" y="0" font-family="'HelveticaNeue-Light'" font-size="18">[300-320]x50 </tspan><tspan x="109.1" y="0" fill="#939598" font-family="'HelveticaNeue-LightItalic'" font-size="18">/</tspan><tspan x="115.1" y="0" font-family="'HelveticaNeue-Light'" font-size="18"> 300x250</tspan></text>
<text transform="matrix(1 0 0 1 34.0995 88.5228)" fill="#27AAE1" font-family="'HelveticaNeue'" font-size="8">LAYOUT #1</text>
<polyline fill="none" stroke="#27AAE1" stroke-miterlimit="10" points="107.1,67.1 107.1,73.1 5,73.1 5,67.1 "/>
<line fill="none" stroke="#27AAE1" stroke-miterlimit="10" x1="55.3" y1="73.1" x2="55.3" y2="79.9"/>
<text transform="matrix(1 0 0 1 136.9686 88.5228)" fill="#27AAE1" font-family="'HelveticaNeue'" font-size="8">LAYOUT #2</text>
<polyline fill="none" stroke="#27AAE1" stroke-miterlimit="10" points="191.4,67.1 191.4,73.1 124.9,73.1 124.9,67.1 "/>
<line fill="none" stroke="#27AAE1" stroke-miterlimit="10" x1="158.2" y1="73.1" x2="158.2" y2="79.9"/>
<text transform="matrix(1 0 0 1 85.4366 115.3562)" fill="#27AAE1" font-family="'HelveticaNeue'" font-size="8">PANEL</text>
<polyline fill="none" stroke="#27AAE1" stroke-miterlimit="10" points="191.4,78.5 191.4,101.1 4.9,101.1 4.9,78.5 "/>
<line fill="none" stroke="#27AAE1" stroke-miterlimit="10" x1="98.2" y1="101.1" x2="98.2" y2="107.6"/>
<text transform="matrix(1 0 0 1 126.5518 31.106)" fill="#27AAE1" font-family="'HelveticaNeue'" font-size="8">WIDTH</text>
<text transform="matrix(1 0 0 1 162.9955 31.1062)" fill="#27AAE1" font-family="'HelveticaNeue'" font-size="8">HEIGHT</text>
<polyline fill="none" stroke="#27AAE1" stroke-miterlimit="10" points="124.7,44.9 124.7,38.9 153.9,38.9 153.9,44.9 "/>
<polyline fill="none" stroke="#27AAE1" stroke-miterlimit="10" points="163.3,44.9 163.3,38.9 191.4,38.9 191.4,44.9 "/>
<line fill="none" stroke="#27AAE1" stroke-miterlimit="10" x1="139.3" y1="38.9" x2="139.3" y2="32.4"/>
<line fill="none" stroke="#27AAE1" stroke-miterlimit="10" x1="177.6" y1="38.9" x2="177.6" y2="32.4"/>
<text transform="matrix(1 0 0 1 82.5784 31.1062)" fill="#27AAE1" font-family="'HelveticaNeue'" font-size="8">HEIGHT</text>
<polyline fill="none" stroke="#27AAE1" stroke-miterlimit="10" points="88.2,44.9 88.2,38.9 106.1,38.9 106.1,44.9 "/>
<line fill="none" stroke="#27AAE1" stroke-miterlimit="10" x1="97.2" y1="38.9" x2="97.2" y2="32.4"/>
<text transform="matrix(1 0 0 1 89.881 6.8562)" fill="#27AAE1" font-family="'HelveticaNeue'" font-size="8">BREAKPOINT</text>
<polyline fill="none" stroke="#27AAE1" stroke-miterlimit="10" points="109.1,44.9 109.1,38.9 120.7,38.9 120.7,44.9 "/>
<line fill="none" stroke="#27AAE1" stroke-miterlimit="10" x1="114.9" y1="38.9" x2="114.9" y2="10.3"/>
<text transform="matrix(1 0 0 1 31.4684 23.1062)"><tspan x="0" y="0" fill="#27AAE1" font-family="'HelveticaNeue'" font-size="8">WIDTH</tspan><tspan x="-1" y="8" fill="#27AAE1" font-family="'HelveticaNeue'" font-size="8">RANGE</tspan></text>
<polyline fill="none" stroke="#27AAE1" stroke-miterlimit="10" points="5.4,44.9 5.4,38.9 78.2,38.9 78.2,44.9 "/>
<line fill="none" stroke="#27AAE1" stroke-miterlimit="10" x1="44.2" y1="38.9" x2="44.2" y2="32.4"/>
</svg>
