<?xml version="1.0" encoding="utf-8"?>
<!-- Generator: Adobe Illustrator 18.1.0, SVG Export Plug-In . SVG Version: 6.00 Build 0)  -->
<!DOCTYPE svg PUBLIC "-//W3C//DTD SVG 1.1//EN" "http://www.w3.org/Graphics/SVG/1.1/DTD/svg11.dtd">
<svg version="1.1" id="Layer_1" xmlns="http://www.w3.org/2000/svg" xmlns:xlink="http://www.w3.org/1999/xlink" x="0px" y="0px"
	 viewBox="0 0 205.5 116.1" enable-background="new 0 0 205.5 116.1" xml:space="preserve">
<rect x="20.3" y="20.5" opacity="0.3" fill="#F9ED32" width="176" height="23"/>
<text transform="matrix(1 0 0 1 24.1667 37.9167)"><tspan x="0" y="0" font-family="'HelveticaNeue-Light'" font-size="18">300x50 </tspan><tspan x="63.7" y="0" fill="#939598" font-family="'HelveticaNeue-LightItalic'" font-size="18">with</tspan><tspan x="95.4" y="0" font-family="'HelveticaNeue-Light'" font-size="18"> 300x300</tspan></text>
<text transform="matrix(1 0 0 1 26.0103 8.4998)" fill="#27AAE1" font-family="'HelveticaNeue'" font-size="8">WIDTH</text>
<text transform="matrix(1 0 0 1 29.9011 61.5)"><tspan x="0" y="0" fill="#27AAE1" font-family="'HelveticaNeue'" font-size="8">COLLAPSED</tspan><tspan x="10.7" y="8" fill="#27AAE1" font-family="'HelveticaNeue'" font-size="8">PANEL</tspan></text>
<text transform="matrix(1 0 0 1 58.4539 8.5)" fill="#27AAE1" font-family="'HelveticaNeue'" font-size="8">HEIGHT</text>
<polyline fill="none" stroke="#27AAE1" stroke-miterlimit="10" points="24.2,22.2 24.2,16.2 53.3,16.2 53.3,22.2 "/>
<polyline fill="none" stroke="#27AAE1" stroke-miterlimit="10" points="63.8,22.2 63.8,16.2 82.3,16.2 82.3,22.2 "/>
<line fill="none" stroke="#27AAE1" stroke-miterlimit="10" x1="38.8" y1="16.2" x2="38.8" y2="9.8"/>
<polyline fill="none" stroke="#27AAE1" stroke-miterlimit="10" points="82.3,41.2 82.3,47.2 24.2,47.2 24.2,41.2 "/>
<polyline fill="none" stroke="#27AAE1" stroke-miterlimit="10" points="121,41.2 121,47.2 86.3,47.2 86.3,41.2 "/>
<line fill="none" stroke="#27AAE1" stroke-miterlimit="10" x1="53.4" y1="47.2" x2="53.4" y2="53.8"/>
<line fill="none" stroke="#27AAE1" stroke-miterlimit="10" x1="103.5" y1="47.2" x2="103.5" y2="78.9"/>
<text transform="matrix(1 0 0 1 137.3705 61.5)"><tspan x="0" y="0" fill="#27AAE1" font-family="'HelveticaNeue'" font-size="8">EXPANDED</tspan><tspan x="8.3" y="8" fill="#27AAE1" font-family="'HelveticaNeue'" font-size="8">PANEL</tspan></text>
<text transform="matrix(1 0 0 1 0.1139 88.2083)"><tspan x="0" y="0" fill="#27AAE1" font-family="'HelveticaNeue'" font-size="8">FOR COMPANION ADS OR MULTI-SCREEN ADS ONLY:  </tspan><tspan x="37.6" y="8" fill="#27AAE1" font-family="'HelveticaNeue'" font-size="8">THE “with” KEYWORD SEPARATES  </tspan><tspan x="36.5" y="16" fill="#27AAE1" font-family="'HelveticaNeue'" font-size="8">PRIMAR</tspan><tspan x="66.9" y="16" fill="#27AAE1" font-family="'HelveticaNeue'" font-size="8">Y</tspan><tspan x="72.2" y="16" fill="#27AAE1" font-family="'HelveticaNeue'" font-size="8"> PANEL LAYOUT(S) FROM  </tspan><tspan x="43.6" y="24" fill="#27AAE1" font-family="'HelveticaNeue'" font-size="8">SECONDARY PANEL LAYOUT(S)</tspan></text>
<polyline fill="none" stroke="#27AAE1" stroke-miterlimit="10" points="191.1,41.2 191.1,47.2 125.6,47.2 125.6,41.2 "/>
<line fill="none" stroke="#27AAE1" stroke-miterlimit="10" x1="158.4" y1="47.2" x2="158.4" y2="53.8"/>
<line fill="none" stroke="#27AAE1" stroke-miterlimit="10" x1="73" y1="16.2" x2="73" y2="9.8"/>
<text transform="matrix(1 0 0 1 127.4686 8.4998)" fill="#27AAE1" font-family="'HelveticaNeue'" font-size="8">WIDTH</text>
<text transform="matrix(1 0 0 1 163.4121 8.5)" fill="#27AAE1" font-family="'HelveticaNeue'" font-size="8">HEIGHT</text>
<polyline fill="none" stroke="#27AAE1" stroke-miterlimit="10" points="125.6,22.2 125.6,16.2 153.8,16.2 153.8,22.2 "/>
<polyline fill="none" stroke="#27AAE1" stroke-miterlimit="10" points="164.2,22.2 164.2,16.2 191.8,16.2 191.8,22.2 "/>
<line fill="none" stroke="#27AAE1" stroke-miterlimit="10" x1="140.2" y1="16.2" x2="140.2" y2="9.8"/>
<line fill="none" stroke="#27AAE1" stroke-miterlimit="10" x1="178" y1="16.2" x2="178" y2="9.8"/>
</svg>
