<?xml version="1.0" encoding="utf-8"?>
<!-- Generator: Adobe Illustrator 18.1.0, SVG Export Plug-In . SVG Version: 6.00 Build 0)  -->
<!DOCTYPE svg PUBLIC "-//W3C//DTD SVG 1.1//EN" "http://www.w3.org/Graphics/SVG/1.1/DTD/svg11.dtd">
<svg version="1.1" id="Layer_1" xmlns="http://www.w3.org/2000/svg" xmlns:xlink="http://www.w3.org/1999/xlink" x="0px" y="0px"
	 viewBox="0 0 73 79.3" enable-background="new 0 0 73 79.3" xml:space="preserve">
<text transform="matrix(1 0 0 1 4.3436 7.4998)" fill="#27AAE1" font-family="'HelveticaNeue'" font-size="8">WIDTH</text>
<text transform="matrix(1 0 0 1 21.2433 53.5)" fill="#27AAE1" font-family="'HelveticaNeue'" font-size="8">LAYOUT</text>
<text transform="matrix(1 0 0 1 42.0788 7.5)" fill="#27AAE1" font-family="'HelveticaNeue'" font-size="8">HEIGHT</text>
<polyline fill="none" stroke="#27AAE1" stroke-miterlimit="10" points="2.5,17.2 2.5,13.2 31.7,13.2 31.7,17.2 "/>
<polyline fill="none" stroke="#27AAE1" stroke-miterlimit="10" points="42.1,17.2 42.1,13.2 71.2,13.2 71.2,17.2 "/>
<line fill="none" stroke="#27AAE1" stroke-miterlimit="10" x1="17.1" y1="13.2" x2="17.1" y2="8.8"/>
<polyline fill="none" stroke="#27AAE1" stroke-miterlimit="10" points="71.2,36.2 71.2,41.2 2.5,41.2 2.5,36.2 "/>
<line fill="none" stroke="#27AAE1" stroke-miterlimit="10" x1="36.9" y1="41.2" x2="36.9" y2="45.8"/>
<text transform="matrix(1 0 0 1 24.1354 77.5833)" fill="#27AAE1" font-family="'HelveticaNeue'" font-size="8">PANEL</text>
<polyline fill="none" stroke="#27AAE1" stroke-miterlimit="10" points="71.2,45.3 71.2,65.3 2.5,65.3 2.5,45.3 "/>
<line fill="none" stroke="#27AAE1" stroke-miterlimit="10" x1="36.9" y1="65.3" x2="36.9" y2="69.8"/>
<line fill="none" stroke="#27AAE1" stroke-miterlimit="10" x1="56.7" y1="13.2" x2="56.7" y2="8.8"/>
</svg>
