<?xml version="1.0" encoding="utf-8"?>
<!-- Generator: Adobe Illustrator 18.1.0, SVG Export Plug-In . SVG Version: 6.00 Build 0)  -->
<!DOCTYPE svg PUBLIC "-//W3C//DTD SVG 1.1//EN" "http://www.w3.org/Graphics/SVG/1.1/DTD/svg11.dtd">
<svg version="1.1" id="Layer_1" xmlns="http://www.w3.org/2000/svg" xmlns:xlink="http://www.w3.org/1999/xlink" x="0px" y="0px"
	 viewBox="0 0 116.1 42.6" enable-background="new 0 0 116.1 42.6" xml:space="preserve">
<text transform="matrix(1 0 0 1 -278.1606 -108.758)" font-family="'MyriadPro-Regular'" font-size="12">Specly</text>
<text transform="matrix(1 0 0 1 -278.1606 -87.4676)" font-family="'MyriadPro-Regular'" font-size="12">specly</text>
<text transform="matrix(1 0 0 1 -278.1606 -44.2418)" font-family="'MyriadPro-Regular'" font-size="12">specly</text>
<text transform="matrix(1 0 0 1 -285.2038 -10.4461)" font-family="'Handsome-Regular'" font-size="40">Specly</text>
<path fill="#235F7F" d="M-200.7,59.5c-0.1,0.3-0.1,0.6-0.2,1c-0.2,0.9-0.6,1.8-1.1,2.6c-0.5,0.8-1,1.6-1.6,2.4s-1.2,1.5-1.8,2.2
	c-0.6,0.7-1.2,1.4-1.8,2.2c-0.6,0.7-1.2,1.5-1.8,2.2c-0.6,0.7-1.2,1.4-1.9,2.2c-0.2,0.7-0.3,1.5-0.4,2.3c-0.1,0.8-0.1,1.5-0.1,2.3
	c0,1,0.1,1.7,0.3,2c0.2,0.3,0.5,0.5,0.7,0.5c0.4,0,0.9-0.2,1.6-0.7c0.7-0.5,1.3-1.1,2-1.7c0.7-0.6,1.3-1.3,1.9-1.9
	c0.6-0.6,1-1.1,1.3-1.4c0.1-0.1,0.2-0.3,0.3-0.4c0.1-0.1,0.2-0.2,0.4-0.4c0.2-0.2,0.4-0.3,0.6-0.3c0.2,0,0.5,0.1,0.6,0.3
	c0.2,0.2,0.3,0.4,0.3,0.6c0,0.2-0.1,0.4-0.2,0.5c-0.1,0.1-0.3,0.3-0.4,0.4l-0.4,0.4c-0.8,0.9-1.6,1.8-2.5,2.6
	c-0.8,0.9-1.7,1.7-2.7,2.4c-0.5,0.4-1.1,0.7-1.6,0.9c-0.5,0.3-1,0.4-1.5,0.4c-0.8,0-1.5-0.4-2-1.1c-0.5-0.7-0.7-1.8-0.7-3.3
	c0-0.4,0-0.7,0-1.1c0-0.4,0-0.8,0.1-1.2l-0.9,0.9c-0.1,0.1-0.2,0.2-0.3,0.2c-0.1,0.1-0.2,0.1-0.3,0.1c-0.3,0-0.5-0.1-0.7-0.3
	c-0.2-0.2-0.3-0.4-0.3-0.7c0-0.3,0.1-0.5,0.3-0.6c0.9-0.9,1.8-1.9,2.6-2.9c0.2-1.1,0.5-2.2,0.9-3.3s0.8-2.2,1.2-3.2
	c0.4-1.1,0.9-2.1,1.3-3c0.5-1,0.9-1.9,1.4-2.7c0.2-0.3,0.5-0.8,0.9-1.4c0.4-0.6,0.8-1.1,1.3-1.6c0.5-0.5,1-0.9,1.5-1.3
	c0.5-0.4,1.1-0.6,1.6-0.6c0.6,0,1,0.2,1.3,0.6c0.3,0.4,0.4,1,0.4,1.7C-200.7,58.9-200.7,59.2-200.7,59.5z M-202.5,58.2
	c0-0.1,0-0.2-0.1-0.2c-0.3,0-0.8,0.4-1.5,1.2c-0.6,0.6-1.1,1.4-1.7,2.3c-0.6,0.9-1.1,1.9-1.6,2.9c-0.5,1-0.9,2.1-1.3,3.1
	c-0.4,1-0.8,2-1.1,2.8c1-1.1,1.9-2.3,2.8-3.4c0.9-1.1,1.7-2.2,2.4-3.1c0.3-0.3,0.5-0.7,0.8-1.2c0.2-0.4,0.5-0.9,0.7-1.3
	c0.2-0.5,0.4-0.9,0.5-1.4c0.1-0.5,0.2-0.9,0.2-1.4C-202.5,58.4-202.5,58.3-202.5,58.2z"/>
<path fill="#235F7F" d="M-181.5,76.1c-0.5,0.5-0.9,1-1.4,1.4c-0.5,0.5-0.9,0.9-1.5,1.3c-0.6,0.5-1.1,0.9-1.6,1.2s-0.9,0.7-1.4,1
	c-1.6,1.2-2.8,2.1-3.6,2.6c-0.8,0.5-1.3,0.9-1.5,1c-0.6,1.4-1.1,2.7-1.7,3.8c-0.5,1.2-1.1,2.2-1.6,3s-1.1,1.5-1.7,2
	c-0.6,0.5-1.3,0.7-2,0.7c-0.6,0-1.1-0.2-1.5-0.6c-0.4-0.4-0.6-0.9-0.6-1.5c0-0.8,0.3-1.6,0.8-2.4c0.6-0.8,1.2-1.6,2-2.4
	c0.8-0.8,1.6-1.5,2.5-2.1c0.9-0.6,1.6-1.2,2.2-1.6c0.7-1.8,1.4-3.5,2-5.2c0.6-1.7,1.2-3.2,1.6-4.4c-0.6,0.7-1.2,1.5-2,2.4
	c-0.7,0.9-1.5,1.7-2.3,2.4c-0.8,0.7-1.6,1.4-2.4,1.9c-0.8,0.5-1.6,0.7-2.3,0.7c-0.7,0-1.2-0.3-1.5-0.9c-0.3-0.6-0.5-1.3-0.5-2.1
	c0-0.6,0-1.1,0.1-1.7c0.1-0.5,0.2-1.1,0.4-1.6c-0.4,0.4-0.7,0.7-1,1.1c-0.3,0.4-0.6,0.7-1,1.1c-0.2,0.2-0.4,0.3-0.6,0.3
	c-0.2,0-0.5-0.1-0.6-0.3c-0.2-0.2-0.3-0.4-0.3-0.7c0-0.3,0.1-0.5,0.3-0.6c0.5-0.5,1-1.1,1.5-1.6c0.5-0.5,1-1,1.5-1.6
	c0.7-0.7,1.4-1.5,2-2.3c0.6-0.8,1.1-1.5,1.4-2.3c0.1-0.2,0.2-0.4,0.4-0.5c0.2-0.1,0.3-0.1,0.5-0.1c0.2,0,0.4,0.1,0.6,0.3
	c0.2,0.2,0.3,0.4,0.3,0.7c0,0.2-0.1,0.5-0.3,0.9c-0.2,0.4-0.4,0.8-0.6,1.3c-0.2,0.5-0.5,0.9-0.7,1.3c-0.2,0.4-0.4,0.7-0.5,0.9
	c-0.5,1-0.9,1.9-1.2,2.7c-0.3,0.9-0.4,1.8-0.4,2.9c0,0.4,0,0.6,0.1,0.7c0.1,0.1,0.2,0.1,0.3,0.1c0.2,0,0.6-0.2,1.2-0.5
	c0.7-0.4,1.5-1.1,2.4-1.9c0.9-0.9,1.7-1.8,2.5-2.7c0.8-1,1.5-1.9,2.2-2.8c0.7-0.9,1.1-1.6,1.4-2.1c0.2-0.3,0.5-0.5,0.8-0.5
	c0.2,0,0.4,0.1,0.6,0.2c0.3,0.1,0.4,0.4,0.4,0.7v0c0,0.3-0.1,0.7-0.2,1.4c-0.2,0.7-0.4,1.4-0.7,2.3c-0.3,0.9-0.6,1.7-0.9,2.7
	c-0.3,0.9-0.6,1.8-0.9,2.5s-0.5,1.4-0.7,1.9c-0.2,0.5-0.3,0.8-0.3,0.8c1-0.7,1.9-1.4,2.8-2.1c0.9-0.7,1.9-1.4,2.8-2.2
	c0.5-0.4,1-0.8,1.4-1.2c0.4-0.5,0.9-0.9,1.3-1.4c0.2-0.2,0.4-0.3,0.6-0.3c0.2,0,0.5,0.1,0.7,0.3c0.2,0.2,0.3,0.4,0.3,0.7
	C-181.2,75.6-181.3,75.8-181.5,76.1z M-196.5,87.9c-0.5,0.4-1,0.9-1.5,1.4c-0.5,0.5-0.9,1-1.2,1.5c-0.3,0.5-0.5,1-0.5,1.4
	c0,0.2,0.1,0.3,0.3,0.3c0.6,0,1.2-0.5,1.9-1.6c0.7-1,1.4-2.4,2.2-4.2C-195.6,87.1-196,87.5-196.5,87.9z"/>
<text transform="matrix(1 0 0 1 -105.9025 -46.8225)" font-family="'Handsome-Regular'" font-size="44">Specly</text>
<path fill="#2CA6FF" d="M-226.1,76.1c-0.6,0.6-1.2,1.3-1.9,2c-0.7,0.7-1.5,1.3-2.3,1.9c-0.8,0.6-1.6,1.1-2.5,1.4s-1.8,0.6-2.7,0.6
	c-1.2,0-2.2-0.4-3-1.2c-0.8-0.8-1.2-2.1-1.2-4c0-0.9,0.2-1.8,0.5-2.8c0.3-1,0.8-1.9,1.4-2.7c0.6-0.8,1.3-1.5,2.2-2.1
	s1.8-0.8,2.8-0.8c0.7,0,1.2,0.2,1.7,0.6c0.4,0.4,0.6,1,0.6,1.6c0,0.9-0.2,1.6-0.7,2.3c-0.5,0.7-1.1,1.2-1.8,1.7
	c-0.7,0.5-1.5,0.9-2.4,1.3c-0.8,0.3-1.6,0.6-2.3,0.9c0,1.3,0.2,2.2,0.7,2.7c0.5,0.5,1,0.7,1.7,0.7c0.7,0,1.4-0.2,2.2-0.6
	c0.8-0.4,1.5-0.8,2.2-1.4c0.7-0.5,1.4-1.1,2-1.7c0.6-0.6,1.2-1.2,1.6-1.6c0.2-0.2,0.4-0.3,0.6-0.3c0.3,0,0.5,0.1,0.7,0.3
	c0.2,0.2,0.3,0.4,0.3,0.7C-225.8,75.7-225.9,75.9-226.1,76.1z M-232.3,70.7c0-0.4-0.2-0.6-0.6-0.6c-0.5,0-1,0.1-1.5,0.4
	c-0.5,0.3-0.9,0.6-1.3,1.1c-0.4,0.4-0.7,0.9-1,1.5c-0.3,0.5-0.5,1.1-0.7,1.6c0.4-0.2,0.9-0.4,1.5-0.6c0.6-0.2,1.1-0.5,1.7-0.9
	c0.5-0.3,1-0.7,1.4-1.1C-232.5,71.7-232.3,71.2-232.3,70.7L-232.3,70.7z"/>
<path fill="#2CA6FF" d="M-212,75.5c-0.8,0.8-2.6,2.6-3.4,3.4c-0.8,0.8-1.7,1.5-2.6,2.2c-0.8,0.6-1.7,1-2.6,1.4
	c-0.9,0.4-1.9,0.6-3,0.6c-0.7,0-1.3-0.1-1.8-0.4c-0.5-0.3-0.9-0.7-1.3-1.1c-0.3-0.5-0.6-1-0.8-1.6c-0.2-0.6-0.3-1.3-0.3-1.9
	c0-1.2,0.2-2.4,0.6-3.4c0.4-1,1-1.9,1.6-2.7c0.7-0.8,1.4-1.3,2.2-1.8c0.8-0.4,1.6-0.6,2.4-0.6c0.8,0,1.5,0.2,2.1,0.7
	c0.6,0.5,1.1,1.2,1.3,2.2c0,0.1,0,0.1,0,0.1c0,0,0,0.1,0,0.1c0,0.3-0.1,0.5-0.3,0.7c-0.2,0.1-0.4,0.2-0.6,0.2
	c-0.3,0-0.5-0.1-0.7-0.4c-0.1-0.2-0.3-0.5-0.4-0.8c-0.1-0.3-0.3-0.6-0.5-0.8c-0.2-0.2-0.6-0.4-1-0.4c-0.5,0-1,0.2-1.6,0.5
	c-0.6,0.3-1.1,0.8-1.6,1.4c-0.5,0.6-0.9,1.3-1.2,2.1c-0.3,0.8-0.5,1.7-0.5,2.6c0,1,0.2,1.8,0.6,2.4c0.4,0.6,1,1,1.8,1
	c0.9,0,1.8-0.2,2.7-0.6c0.8-0.4,1.6-0.9,2.4-1.5c0.8-0.6,1.5-1.2,2.2-1.9c0.7-0.7,2.3-2.3,2.9-3c0.2-0.2,0.4-0.3,0.6-0.3
	c0.2,0,0.5,0.1,0.6,0.3c0.2,0.2,0.3,0.4,0.3,0.7C-211.7,75.2-211.8,75.4-212,75.5z"/>
<text transform="matrix(1 0 0 1 6.5601 88.4807)" font-family="'ProximaNova-Semibold'" font-size="35">specly</text>
<polyline fill="none" stroke="#2CA6FF" stroke-width="1.0306" stroke-miterlimit="10" points="107.5,72 107.5,89.1 7,89.1 7,72 "/>
<path fill="#2CA6FF" d="M-237.9,75.1c-0.2-0.2-0.4-0.3-0.6-0.3c-0.2,0-0.4,0.1-0.6,0.3c-0.5,0.5-1.1,1.1-1.6,1.6
	c-0.5,0.5-1.1,1.1-1.7,1.5c-0.4,0.3-0.9,0.7-1.4,1c-0.6,0.3-1.2,0.6-1.8,0.9c-0.6,0.3-1.3,0.5-1.9,0.6c-0.7,0.2-1.3,0.2-1.9,0.2
	c-0.1,0-0.1,0-0.2,0c-0.1,0-0.1,0-0.2,0c0.7-0.4,1.5-0.9,2.3-1.6c0.8-0.7,1.6-1.4,2.3-2.2c0.7-0.8,1.3-1.7,1.8-2.6
	c0.5-0.9,0.7-1.8,0.7-2.8c0-0.7-0.2-1.4-0.6-1.9c-0.4-0.5-1-0.8-1.9-0.8c-0.6,0-1.4,0.2-2.2,0.5c-1.2,0.5-2.4,1.2-3.5,2.1
	c-1.1,0.9-2.2,1.9-3.2,3c0.4-1.1,0.7-2.2,1-3.3c0.1-0.3,0.2-0.6,0.2-0.9c0-0.3-0.1-0.6-0.4-0.8c-0.2-0.1-0.5-0.2-0.7-0.1
	c-2.1,0.1-3,2.1-4.1,3.6c-1.3,1.8-3,3.6-5,4.6c-1.3,0.7-2.8,1.2-4.4,1.6c0.1-0.3,0.1-0.7,0.2-1c0.1-0.3,0.1-0.7,0.1-1.1
	c0-1.1-0.2-2-0.6-2.8c-0.4-0.8-0.9-1.5-1.6-2.1c-0.7-0.6-1.4-1.2-2.2-1.7c-0.8-0.5-1.6-1-2.3-1.5c-0.3-0.2-0.6-0.4-1-0.6
	c-0.3-0.2-0.7-0.5-1-0.8c-0.3-0.3-0.5-0.6-0.7-1c-0.2-0.3-0.3-0.7-0.3-1.1c0-0.9,0.3-1.7,0.8-2.5c0.5-0.8,1.2-1.4,2-2
	c0.8-0.6,1.7-1,2.7-1.4c1-0.3,2-0.5,3-0.5c0.7,0,1.4,0.1,1.9,0.3c0.5,0.2,1,0.5,1.3,0.9c0.3,0.4,0.6,0.8,0.8,1.3
	c0.2,0.5,0.3,1,0.3,1.6c0,1.3-0.4,2.5-1.2,3.6c-0.1,0.2-0.2,0.4-0.2,0.5c0,0.3,0.1,0.5,0.3,0.7c0.2,0.2,0.4,0.3,0.6,0.3
	c0.3,0,0.5-0.1,0.8-0.4c0.5-0.7,0.8-1.4,1.1-2.2c0.3-0.8,0.4-1.6,0.4-2.3s-0.1-1.5-0.4-2.2c-0.3-0.7-0.6-1.3-1.1-1.9
	c-0.5-0.5-1.1-1-1.9-1.3c-0.8-0.3-1.6-0.5-2.7-0.5c-1,0-2.2,0.2-3.4,0.6c-1.2,0.4-2.3,0.9-3.4,1.6c-1,0.7-1.9,1.6-2.6,2.6
	c-0.7,1-1,2.2-1,3.4c0,0.9,0.2,1.7,0.7,2.3c0.5,0.7,1.1,1.3,1.8,1.8c0.7,0.5,1.5,1.1,2.3,1.6c0.8,0.5,1.6,1,2.3,1.6
	c0.7,0.6,1.3,1.2,1.8,1.9c0.5,0.7,0.7,1.5,0.7,2.5c0,0.9-0.2,1.7-0.5,2.5c-0.8,0.1-1.6,0.2-2.5,0.2c-0.4,0-1,0-1.7,0
	c-0.7,0-1.4,0-2.2,0.1s-1.6,0.1-2.3,0.3c-0.8,0.1-1.5,0.3-2.1,0.6c-0.6,0.3-1.1,0.6-1.5,1.1c-0.4,0.5-0.6,1-0.6,1.7
	c0,0.6,0.1,1,0.4,1.5c0.3,0.4,0.6,0.8,1.1,1c0.4,0.3,0.9,0.5,1.3,0.6c0.5,0.1,0.9,0.2,1.3,0.2c1,0,2-0.1,3-0.4
	c1-0.3,1.9-0.6,2.8-1.1c0.9-0.5,1.7-1.1,2.5-1.8c0.7-0.7,1.4-1.5,1.8-2.4c1-0.2,2-0.4,2.9-0.7c0.9-0.3,1.8-0.6,2.6-1
	s1.6-0.9,2.3-1.5c0.5-0.4,1-0.9,1.5-1.4c0.2-0.2,0.5-0.5,0.8-0.8c0.5-0.5,1-1.1,1.5-1.7c0.4-0.5,0.8-1.3,1.3-1.6
	c-0.4,0.3-0.6,2.3-0.7,2.7c-0.7,2.1-1.7,3.8-2.9,5.6c-0.6,0.9-1.2,1.8-1.7,2.5c-0.4,0.5-0.8,1.1-1.4,1.9c-0.5,0.8-1,1.6-1.5,2.4
	c-0.5,0.9-0.9,1.7-1.3,2.6c-0.3,0.9-0.5,1.6-0.5,2.3c0,0.7,0.2,1.2,0.5,1.6c0.3,0.4,0.8,0.6,1.3,0.6c0.6,0,1.2-0.3,1.7-0.8
	c0.6-0.5,1.1-1.4,1.7-2.5c0.6-1.1,1.1-2.4,1.7-3.8c0.6-1.4,1.1-2.9,1.6-4.5c0.5-1.6,1-3,1.5-4.4c0.6-0.8,1.2-1.6,1.9-2.4
	c0.7-0.8,1.4-1.5,2.2-2.2c0.8-0.7,1.5-1.3,2.3-1.8c0.8-0.5,1.6-1,2.3-1.3c0.6-0.2,1.1-0.4,1.4-0.4c0.5,0,0.8,0.3,0.8,0.9
	c0,0.5-0.1,1-0.4,1.5s-0.6,1.1-1,1.8c-0.4,0.6-0.9,1.2-1.5,1.8c-0.5,0.6-1.1,1.1-1.7,1.6c-0.6,0.5-1.1,0.8-1.6,1.1
	c-0.5,0.3-1,0.4-1.4,0.4c-0.4,0-0.7-0.1-1-0.3c-0.2-0.2-0.5-0.3-0.8-0.3c-0.2,0-0.5,0.1-0.7,0.2c-0.2,0.2-0.3,0.4-0.3,0.7
	c0,0.4,0.2,0.6,0.5,0.8c0.8,0.5,1.6,0.9,2.4,1.1c0.8,0.2,1.7,0.3,2.5,0.3c1.5,0,2.9-0.3,4.3-0.9c1.4-0.6,2.6-1.3,3.6-2.1
	c0.6-0.5,1.2-1.1,1.8-1.6c0.6-0.5,1.1-1.1,1.7-1.7c0.2-0.2,0.3-0.4,0.3-0.6C-237.7,75.5-237.8,75.3-237.9,75.1z M-274.3,84.4
	c-1.4,0.6-2.8,0.9-4.2,0.9c-0.6,0-1.1-0.2-1.6-0.5c-0.5-0.3-0.7-0.6-0.7-1c0-0.3,0.1-0.5,0.3-0.7c0.2-0.2,0.5-0.4,0.8-0.5
	c0.3-0.1,0.7-0.2,1.2-0.3c0.4-0.1,0.9-0.1,1.4-0.2c0.5-0.1,1-0.1,1.5-0.1c0.5,0,1,0,1.5-0.1c0.5,0,0.9,0,1.2,0c0.4,0,0.7,0,0.9,0
	c0.2,0,0.4,0,0.6,0c0.2,0,0.4,0,0.6,0C-271.7,82.9-272.9,83.8-274.3,84.4z M-259.3,84.9c-0.2,0.5-0.4,1.2-0.7,1.9
	c-0.3,0.7-0.6,1.4-0.9,2.2c-0.3,0.8-0.7,1.5-1,2.1c-0.3,0.6-0.6,1.1-0.9,1.6c-0.3,0.4-0.5,0.6-0.7,0.6c-0.1,0-0.2-0.2-0.2-0.5
	c0-0.6,0.2-1.3,0.6-2.1c0.4-0.8,0.8-1.7,1.3-2.5c0.5-0.8,1.1-1.6,1.6-2.4c0.5-0.8,1-1.4,1.3-1.9C-259,84-259.1,84.4-259.3,84.9z"/>
<path fill="#235F7F" d="M-92.3,57c-0.1,0.3-0.1,0.6-0.2,1c-0.2,0.9-0.6,1.8-1.1,2.6c-0.5,0.8-1,1.6-1.6,2.4s-1.2,1.5-1.8,2.2
	c-0.6,0.7-1.2,1.4-1.8,2.2c-0.6,0.7-1.2,1.5-1.8,2.2c-0.6,0.7-1.2,1.4-1.9,2.2c-0.2,0.7-0.3,1.5-0.4,2.3c-0.1,0.8-0.1,1.5-0.1,2.3
	c0,1,0.1,1.7,0.3,2c0.2,0.3,0.5,0.5,0.7,0.5c0.4,0,0.9-0.2,1.6-0.7c0.7-0.5,1.3-1.1,2-1.7c0.7-0.6,1.3-1.3,1.9-1.9
	c0.6-0.6,1-1.1,1.3-1.4c0.1-0.1,0.2-0.3,0.3-0.4c0.1-0.1,0.2-0.2,0.4-0.4c0.2-0.2,0.4-0.3,0.6-0.3c0.2,0,0.5,0.1,0.6,0.3
	c0.2,0.2,0.3,0.4,0.3,0.6c0,0.2-0.1,0.4-0.2,0.5c-0.1,0.1-0.3,0.3-0.4,0.4l-0.4,0.4c-0.8,0.9-1.6,1.8-2.5,2.6
	c-0.8,0.9-1.7,1.7-2.7,2.4c-0.5,0.4-1.1,0.7-1.6,0.9c-0.5,0.3-1,0.4-1.5,0.4c-0.8,0-1.5-0.4-2-1.1c-0.5-0.7-0.7-1.8-0.7-3.3
	c0-0.4,0-0.7,0-1.1c0-0.4,0-0.8,0.1-1.2l-0.9,0.9c-0.1,0.1-0.2,0.2-0.3,0.2c-0.1,0.1-0.2,0.1-0.3,0.1c-0.3,0-0.5-0.1-0.7-0.3
	c-0.2-0.2-0.3-0.4-0.3-0.7c0-0.3,0.1-0.5,0.3-0.6c0.9-0.9,1.8-1.9,2.6-2.9c0.2-1.1,0.5-2.2,0.9-3.3s0.8-2.2,1.2-3.2
	c0.4-1.1,0.9-2.1,1.3-3c0.5-1,0.9-1.9,1.4-2.7c0.2-0.3,0.5-0.8,0.9-1.4c0.4-0.6,0.8-1.1,1.3-1.6c0.5-0.5,1-0.9,1.5-1.3
	c0.5-0.4,1.1-0.6,1.6-0.6c0.6,0,1,0.2,1.3,0.6c0.3,0.4,0.4,1,0.4,1.7C-92.2,56.3-92.2,56.6-92.3,57z M-94,55.7c0-0.1,0-0.2-0.1-0.2
	c-0.3,0-0.8,0.4-1.5,1.2c-0.6,0.6-1.1,1.4-1.7,2.3c-0.6,0.9-1.1,1.9-1.6,2.9c-0.5,1-0.9,2.1-1.3,3.1c-0.4,1-0.8,2-1.1,2.8
	c1-1.1,1.9-2.3,2.8-3.4c0.9-1.1,1.7-2.2,2.4-3.1c0.3-0.3,0.5-0.7,0.8-1.2c0.2-0.4,0.5-0.9,0.7-1.3c0.2-0.5,0.4-0.9,0.5-1.4
	C-94,56.9-94,56.4-94,56C-94,55.8-94,55.7-94,55.7z"/>
<path fill="#235F7F" d="M-73,73.5c-0.5,0.5-0.9,1-1.4,1.4c-0.5,0.5-0.9,0.9-1.5,1.3c-0.6,0.5-1.1,0.9-1.6,1.2s-0.9,0.7-1.4,1
	c-1.6,1.2-2.8,2.1-3.6,2.6c-0.8,0.5-1.3,0.9-1.5,1c-0.6,1.4-1.1,2.7-1.7,3.8c-0.5,1.2-1.1,2.2-1.6,3s-1.1,1.5-1.7,2
	c-0.6,0.5-1.3,0.7-2,0.7c-0.6,0-1.1-0.2-1.5-0.6c-0.4-0.4-0.6-0.9-0.6-1.5c0-0.8,0.3-1.6,0.8-2.4c0.6-0.8,1.2-1.6,2-2.4
	c0.8-0.8,1.6-1.5,2.5-2.1c0.9-0.6,1.6-1.2,2.2-1.6c0.7-1.8,1.4-3.5,2-5.2c0.6-1.7,1.2-3.2,1.6-4.4c-0.6,0.7-1.2,1.5-2,2.4
	c-0.7,0.9-1.5,1.7-2.3,2.4c-0.8,0.7-1.6,1.4-2.4,1.9c-0.8,0.5-1.6,0.7-2.3,0.7c-0.7,0-1.2-0.3-1.5-0.9c-0.3-0.6-0.5-1.3-0.5-2.1
	c0-0.6,0-1.1,0.1-1.7c0.1-0.5,0.2-1.1,0.4-1.6c-0.4,0.4-0.7,0.7-1,1.1c-0.3,0.4-0.6,0.7-1,1.1c-0.2,0.2-0.4,0.3-0.6,0.3
	c-0.2,0-0.5-0.1-0.6-0.3c-0.2-0.2-0.3-0.4-0.3-0.7c0-0.3,0.1-0.5,0.3-0.6c0.5-0.5,1-1.1,1.5-1.6c0.5-0.5,1-1,1.5-1.6
	c0.7-0.7,1.4-1.5,2-2.3c0.6-0.8,1.1-1.5,1.4-2.3c0.1-0.2,0.2-0.4,0.4-0.5c0.2-0.1,0.3-0.1,0.5-0.1c0.2,0,0.4,0.1,0.6,0.3
	c0.2,0.2,0.3,0.4,0.3,0.7c0,0.2-0.1,0.5-0.3,0.9c-0.2,0.4-0.4,0.8-0.6,1.3c-0.2,0.5-0.5,0.9-0.7,1.3c-0.2,0.4-0.4,0.7-0.5,0.9
	c-0.5,1-0.9,1.9-1.2,2.7c-0.3,0.9-0.4,1.8-0.4,2.9c0,0.4,0,0.6,0.1,0.7c0.1,0.1,0.2,0.1,0.3,0.1c0.2,0,0.6-0.2,1.2-0.5
	c0.7-0.4,1.5-1.1,2.4-1.9c0.9-0.9,1.7-1.8,2.5-2.7c0.8-1,1.5-1.9,2.2-2.8c0.7-0.9,1.1-1.6,1.4-2.1c0.2-0.3,0.5-0.5,0.8-0.5
	c0.2,0,0.4,0.1,0.6,0.2c0.3,0.1,0.4,0.4,0.4,0.7v0c0,0.3-0.1,0.7-0.2,1.4c-0.2,0.7-0.4,1.4-0.7,2.3c-0.3,0.9-0.6,1.7-0.9,2.7
	c-0.3,0.9-0.6,1.8-0.9,2.5s-0.5,1.4-0.7,1.9c-0.2,0.5-0.3,0.8-0.3,0.8c1-0.7,1.9-1.4,2.8-2.1c0.9-0.7,1.9-1.4,2.8-2.2
	c0.5-0.4,1-0.8,1.4-1.2c0.4-0.5,0.9-0.9,1.3-1.4c0.2-0.2,0.4-0.3,0.6-0.3c0.2,0,0.5,0.1,0.7,0.3c0.2,0.2,0.3,0.4,0.3,0.7
	C-72.7,73.1-72.8,73.3-73,73.5z M-88.1,85.3c-0.5,0.4-1,0.9-1.5,1.4c-0.5,0.5-0.9,1-1.2,1.5c-0.3,0.5-0.5,1-0.5,1.4
	c0,0.2,0.1,0.3,0.3,0.3c0.6,0,1.2-0.5,1.9-1.6c0.7-1,1.4-2.4,2.2-4.2C-87.1,84.5-87.5,84.9-88.1,85.3z"/>
<path fill="#2CA6FF" d="M-117.6,73.6c-0.6,0.6-1.2,1.3-1.9,2c-0.7,0.7-1.5,1.3-2.3,1.9c-0.8,0.6-1.6,1.1-2.5,1.4s-1.8,0.6-2.7,0.6
	c-1.2,0-2.2-0.4-3-1.2c-0.8-0.8-1.2-2.1-1.2-4c0-0.9,0.2-1.8,0.5-2.8c0.3-1,0.8-1.9,1.4-2.7c0.6-0.8,1.3-1.5,2.2-2.1
	s1.8-0.8,2.8-0.8c0.7,0,1.2,0.2,1.7,0.6c0.4,0.4,0.6,1,0.6,1.6c0,0.9-0.2,1.6-0.7,2.3c-0.5,0.7-1.1,1.2-1.8,1.7
	c-0.7,0.5-1.5,0.9-2.4,1.3c-0.8,0.3-1.6,0.6-2.3,0.9c0,1.3,0.2,2.2,0.7,2.7c0.5,0.5,1,0.7,1.7,0.7c0.7,0,1.4-0.2,2.2-0.6
	c0.8-0.4,1.5-0.8,2.2-1.4c0.7-0.5,1.4-1.1,2-1.7c0.6-0.6,1.2-1.2,1.6-1.6c0.2-0.2,0.4-0.3,0.6-0.3c0.3,0,0.5,0.1,0.7,0.3
	c0.2,0.2,0.3,0.4,0.3,0.7C-117.3,73.2-117.4,73.4-117.6,73.6z M-123.8,68.2c0-0.4-0.2-0.6-0.6-0.6c-0.5,0-1,0.1-1.5,0.4
	c-0.5,0.3-0.9,0.6-1.3,1.1c-0.4,0.4-0.7,0.9-1,1.5c-0.3,0.5-0.5,1.1-0.7,1.6c0.4-0.2,0.9-0.4,1.5-0.6c0.6-0.2,1.1-0.5,1.7-0.9
	c0.5-0.3,1-0.7,1.4-1.1C-124,69.1-123.9,68.7-123.8,68.2L-123.8,68.2z"/>
<path fill="#2CA6FF" d="M-103.5,73c-0.8,0.8-2.6,2.6-3.4,3.4c-0.8,0.8-1.7,1.5-2.6,2.2c-0.8,0.6-1.7,1-2.6,1.4
	c-0.9,0.4-1.9,0.6-3,0.6c-0.7,0-1.3-0.1-1.8-0.4c-0.5-0.3-0.9-0.7-1.3-1.1c-0.3-0.5-0.6-1-0.8-1.6c-0.2-0.6-0.3-1.3-0.3-1.9
	c0-1.2,0.2-2.4,0.6-3.4c0.4-1,1-1.9,1.6-2.7c0.7-0.8,1.4-1.3,2.2-1.8c0.8-0.4,1.6-0.6,2.4-0.6c0.8,0,1.5,0.2,2.1,0.7
	c0.6,0.5,1.1,1.2,1.3,2.2c0,0.1,0,0.1,0,0.1c0,0,0,0.1,0,0.1c0,0.3-0.1,0.5-0.3,0.7c-0.2,0.1-0.4,0.2-0.6,0.2
	c-0.3,0-0.5-0.1-0.7-0.4c-0.1-0.2-0.3-0.5-0.4-0.8c-0.1-0.3-0.3-0.6-0.5-0.8c-0.2-0.2-0.6-0.4-1-0.4c-0.5,0-1,0.2-1.6,0.5
	c-0.6,0.3-1.1,0.8-1.6,1.4c-0.5,0.6-0.9,1.3-1.2,2.1c-0.3,0.8-0.5,1.7-0.5,2.6c0,1,0.2,1.8,0.6,2.4c0.4,0.6,1,1,1.8,1
	c0.9,0,1.8-0.2,2.7-0.6c0.8-0.4,1.6-0.9,2.4-1.5c0.8-0.6,1.5-1.2,2.2-1.9c0.7-0.7,2.3-2.3,2.9-3c0.2-0.2,0.4-0.3,0.6-0.3
	c0.2,0,0.5,0.1,0.6,0.3c0.2,0.2,0.3,0.4,0.3,0.7C-103.2,72.6-103.3,72.8-103.5,73z"/>
<path fill="#2CA6FF" d="M-129.5,72.5c-0.2-0.2-0.4-0.3-0.6-0.3c-0.2,0-0.4,0.1-0.6,0.3c-0.5,0.5-1.1,1.1-1.6,1.6
	c-0.5,0.5-1.1,1.1-1.7,1.5c-0.4,0.3-0.9,0.7-1.4,1c-0.6,0.3-1.2,0.6-1.8,0.9c-0.6,0.3-1.3,0.5-1.9,0.6c-0.7,0.2-1.3,0.2-1.9,0.2
	c-0.1,0-0.1,0-0.2,0c-0.1,0-0.1,0-0.2,0c0.7-0.4,1.5-0.9,2.3-1.6c0.8-0.7,1.6-1.4,2.3-2.2c0.7-0.8,1.3-1.7,1.8-2.6
	c0.5-0.9,0.7-1.8,0.7-2.8c0-0.7-0.2-1.4-0.6-1.9c-0.4-0.5-1-0.8-1.9-0.8c-0.6,0-1.4,0.2-2.2,0.5c-1.2,0.5-2.4,1.2-3.5,2.1
	c-1.1,0.9-2.2,1.9-3.2,3c0.4-1.1,0.7-2.2,1-3.3c0.1-0.3,0.2-0.6,0.2-0.9c0-0.3-0.1-0.6-0.4-0.8c-0.2-0.1-0.5-0.2-0.7-0.1
	c-2.1,0.1-3,2.1-4.1,3.6c-1.3,1.8-3,3.6-5,4.6c-1.3,0.7-2.8,1.2-4.4,1.6c0.1-0.3,0.1-0.7,0.2-1c0.1-0.3,0.1-0.7,0.1-1.1
	c0-1.1-0.2-2-0.6-2.8c-0.4-0.8-0.9-1.5-1.6-2.1c-0.7-0.6-1.4-1.2-2.2-1.7c-0.8-0.5-1.6-1-2.3-1.5c-0.3-0.2-0.6-0.4-1-0.6
	c-0.3-0.2-0.7-0.5-1-0.8c-0.3-0.3-0.5-0.6-0.7-1c-0.2-0.3-0.3-0.7-0.3-1.1c0-0.9,0.3-1.7,0.8-2.5c0.5-0.8,1.2-1.4,2-2
	c0.8-0.6,1.7-1,2.7-1.4c1-0.3,2-0.5,3-0.5c0.7,0,1.4,0.1,1.9,0.3c0.5,0.2,1,0.5,1.3,0.9c0.3,0.4,0.6,0.8,0.8,1.3
	c0.2,0.5,0.3,1,0.3,1.6c0,1.3-0.4,2.5-1.2,3.6c-0.1,0.2-0.2,0.4-0.2,0.5c0,0.3,0.1,0.5,0.3,0.7c0.2,0.2,0.4,0.3,0.6,0.3
	c0.3,0,0.5-0.1,0.8-0.4c0.5-0.7,0.8-1.4,1.1-2.2c0.3-0.8,0.4-1.6,0.4-2.3s-0.1-1.5-0.4-2.2c-0.3-0.7-0.6-1.3-1.1-1.9
	c-0.5-0.5-1.1-1-1.9-1.3c-0.8-0.3-1.6-0.5-2.7-0.5c-1,0-2.2,0.2-3.4,0.6c-1.2,0.4-2.3,0.9-3.4,1.6c-1,0.7-1.9,1.6-2.6,2.6
	c-0.7,1-1,2.2-1,3.4c0,0.9,0.2,1.7,0.7,2.3c0.5,0.7,1.1,1.3,1.8,1.8c0.7,0.5,1.5,1.1,2.3,1.6c0.8,0.5,1.6,1,2.3,1.6
	c0.7,0.6,1.3,1.2,1.8,1.9c0.5,0.7,0.7,1.5,0.7,2.5c0,0.9-0.2,1.7-0.5,2.5c-0.8,0.1-1.6,0.2-2.5,0.2c-0.4,0-1,0-1.7,0
	c-0.7,0-1.4,0-2.2,0.1s-1.6,0.1-2.3,0.3c-0.8,0.1-1.5,0.3-2.1,0.6c-0.6,0.3-1.1,0.6-1.5,1.1c-0.4,0.5-0.6,1-0.6,1.7
	c0,0.6,0.1,1,0.4,1.5c0.3,0.4,0.6,0.8,1.1,1c0.4,0.3,0.9,0.5,1.3,0.6c0.5,0.1,0.9,0.2,1.3,0.2c1,0,2-0.1,3-0.4
	c1-0.3,1.9-0.6,2.8-1.1c0.9-0.5,1.7-1.1,2.5-1.8c0.7-0.7,1.4-1.5,1.8-2.4c1-0.2,2-0.4,2.9-0.7c0.9-0.3,1.8-0.6,2.6-1
	s1.6-0.9,2.3-1.5c0.5-0.4,1-0.9,1.5-1.4c0.2-0.2,0.5-0.5,0.8-0.8c0.5-0.5,1-1.1,1.5-1.7c0.4-0.5,0.8-1.3,1.3-1.6
	c-0.4,0.3-0.6,2.3-0.7,2.7c-0.7,2.1-1.7,3.8-2.9,5.6c-0.6,0.9-1.2,1.8-1.7,2.5c-0.4,0.5-0.8,1.1-1.4,1.9c-0.5,0.8-1,1.6-1.5,2.4
	c-0.5,0.9-0.9,1.7-1.3,2.6c-0.3,0.9-0.5,1.6-0.5,2.3c0,0.7,0.2,1.2,0.5,1.6c0.3,0.4,0.8,0.6,1.3,0.6c0.6,0,1.2-0.3,1.7-0.8
	c0.6-0.5,1.1-1.4,1.7-2.5c0.6-1.1,1.1-2.4,1.7-3.8c0.6-1.4,1.1-2.9,1.6-4.5c0.5-1.6,1-3,1.5-4.4c0.6-0.8,1.2-1.6,1.9-2.4
	c0.7-0.8,1.4-1.5,2.2-2.2c0.8-0.7,1.5-1.3,2.3-1.8c0.8-0.5,1.6-1,2.3-1.3c0.6-0.2,1.1-0.4,1.4-0.4c0.5,0,0.8,0.3,0.8,0.9
	c0,0.5-0.1,1-0.4,1.5s-0.6,1.1-1,1.8c-0.4,0.6-0.9,1.2-1.5,1.8c-0.5,0.6-1.1,1.1-1.7,1.6c-0.6,0.5-1.1,0.8-1.6,1.1
	c-0.5,0.3-1,0.4-1.4,0.4c-0.4,0-0.7-0.1-1-0.3c-0.2-0.2-0.5-0.3-0.8-0.3c-0.2,0-0.5,0.1-0.7,0.2c-0.2,0.2-0.3,0.4-0.3,0.7
	c0,0.4,0.2,0.6,0.5,0.8c0.8,0.5,1.6,0.9,2.4,1.1c0.8,0.2,1.7,0.3,2.5,0.3c1.5,0,2.9-0.3,4.3-0.9c1.4-0.6,2.6-1.3,3.6-2.1
	c0.6-0.5,1.2-1.1,1.8-1.6c0.6-0.5,1.1-1.1,1.7-1.7c0.2-0.2,0.3-0.4,0.3-0.6C-129.2,73-129.3,72.7-129.5,72.5z M-165.8,81.9
	c-1.4,0.6-2.8,0.9-4.2,0.9c-0.6,0-1.1-0.2-1.6-0.5c-0.5-0.3-0.7-0.6-0.7-1c0-0.3,0.1-0.5,0.3-0.7c0.2-0.2,0.5-0.4,0.8-0.5
	c0.3-0.1,0.7-0.2,1.2-0.3c0.4-0.1,0.9-0.1,1.4-0.2c0.5-0.1,1-0.1,1.5-0.1c0.5,0,1,0,1.5-0.1c0.5,0,0.9,0,1.2,0c0.4,0,0.7,0,0.9,0
	c0.2,0,0.4,0,0.6,0c0.2,0,0.4,0,0.6,0C-163.3,80.4-164.4,81.2-165.8,81.9z M-150.8,82.4c-0.2,0.5-0.4,1.2-0.7,1.9
	c-0.3,0.7-0.6,1.4-0.9,2.2c-0.3,0.8-0.7,1.5-1,2.1c-0.3,0.6-0.6,1.1-0.9,1.6c-0.3,0.4-0.5,0.6-0.7,0.6c-0.1,0-0.2-0.2-0.2-0.5
	c0-0.6,0.2-1.3,0.6-2.1c0.4-0.8,0.8-1.7,1.3-2.5c0.5-0.8,1.1-1.6,1.6-2.4c0.5-0.8,1-1.4,1.3-1.9C-150.5,81.5-150.6,81.8-150.8,82.4z
	"/>
<rect x="1.8" y="9.3" opacity="0.3" fill="#F9EC31" width="112" height="23"/>
<g>
	<path d="M17.7,14.7l-2,4.1c0,0-2.1-1.1-4-1.1c-1.4,0-1.9,0.2-1.9,1.1c0,0.9,1.3,1.2,2.8,1.7c2.4,0.7,5.5,2.1,5.5,5.7
		c0,5.3-4.8,6.1-8.5,6.1c-4.3,0-6.9-2.4-6.9-2.4l2.5-4.2c0,0,2.5,2.1,4.4,2.1c0.9,0,1.9-0.1,1.9-1.3c0-1.3-2-1.4-4-2.5
		c-1.8-0.9-3.6-2.2-3.6-4.9c0-3.7,3.1-5.8,7.8-5.8C15.2,13.3,17.7,14.7,17.7,14.7z"/>
	<path d="M33.2,32.3c-2.4,0-4.4-0.8-5.9-2.2v10.8h-6.2V13.8h6.1v2h0.1c1.3-1.5,3.4-2.6,5.9-2.6c5.3,0,8.9,4.2,8.9,9.5
		S38.5,32.3,33.2,32.3z M31.4,18.6c-2.4,0-4.2,1.8-4.2,4.2c0,2.5,1.9,4.2,4.2,4.2c2.3,0,4.2-1.8,4.2-4.2
		C35.6,20.4,33.9,18.6,31.4,18.6z"/>
	<path d="M50.2,23.7c0,2.8,2.3,3.7,3.9,3.7c2,0,2.9-0.4,4.4-2l4.5,2.2c-2,3.4-5.3,4.7-9.3,4.7c-5.4,0-9.9-4.3-9.9-9.5
		c0-5.3,4.4-9.5,9.9-9.5c5.5,0,9.6,3.2,9.6,9.5c0,0.2,0,0.6,0,0.8H50.2z M57.2,20.3c-0.3-1.9-1.6-2.9-3.4-2.9
		c-2.1,0-3.3,1.3-3.4,2.9H57.2z"/>
	<path d="M71.4,22.8c0,2.5,1.9,4.4,4.3,4.4c1.9,0,3-0.8,3-0.8l2.1,4.3c0,0-2,1.6-6,1.6c-5.2,0-9.9-4.2-9.9-9.5
		c0-5.3,4.7-9.6,9.9-9.6c4,0,6,1.7,6,1.7l-2.1,4.2c0,0-1.2-0.8-3-0.8C73.4,18.4,71.4,20.4,71.4,22.8z"/>
	<path d="M83.3,1.7h6.2v30.1h-6.2V1.7z"/>
	<path d="M114.2,13.8l-14.1,27.1h-7.1L99.1,29l-8.5-15.2h7.1l5,9.2l4.3-9.2H114.2z"/>
</g>
<polyline fill="none" stroke="#2CA6FF" stroke-miterlimit="10" points="113.8,19.8 113.8,34.3 1.8,34.3 1.8,19.8 "/>
<g id="Measurement_1_">
	<g>
		<path d="M157.8,21.2c-0.4,1-0.7,2.1-0.8,3.2l0.1,2.4c0.5,3.7,2.9,7,6.6,8.5c5.5,2.2,82.5,24,83.3,22.1
			c0.9-2.1-69.6-39.9-75.2-42.2C166.4,13,160.1,15.7,157.8,21.2z M171.9,25.3c0,2.2-1.7,3.9-3.9,3.9c-2.1,0-3.9-1.7-3.9-3.9
			s1.7-3.9,3.9-3.9C170.2,21.4,171.9,23.2,171.9,25.3z"/>
		<path d="M172.3,11.9c0.9,0.1,1.9,0.4,2.8,0.8c1.8,0.8,10.1,5,20.2,10.4c22.5-12,52.3-29,51.7-30.4C246.4-8.9,191.6,6.1,172.3,11.9
			z"/>
	</g>
</g>
</svg>
