<?xml version="1.0" encoding="utf-8"?>
<!-- Generator: Adobe Illustrator 18.1.0, SVG Export Plug-In . SVG Version: 6.00 Build 0)  -->
<!DOCTYPE svg PUBLIC "-//W3C//DTD SVG 1.1//EN" "http://www.w3.org/Graphics/SVG/1.1/DTD/svg11.dtd">
<svg version="1.1" id="Layer_1" xmlns="http://www.w3.org/2000/svg" xmlns:xlink="http://www.w3.org/1999/xlink" x="0px" y="0px"
	 viewBox="0 0 228 100" enable-background="new 0 0 228 100" xml:space="preserve">
<path fill="#27AAE1" d="M62.1,56.6c3,2.8,6.8,4.5,10.7,4.5c5.1,0,7.8-2.2,7.8-5.6c0-3.5-2.8-4.6-6.6-6.1L68.7,47
	c-3.9-1.5-8.2-4.4-8.2-10c0-5.9,5.3-10.5,12.9-10.5c4.7,0,9,1.8,12,4.8l-3,3.7c-2.5-2.2-5.3-3.5-9-3.5c-4.4,0-7,1.9-7,5.1
	c0,3.4,3.3,4.5,6.6,5.9l5.2,2.3c4.8,1.8,8.5,4.6,8.5,10.2c0,6.1-5.2,11.2-13.9,11.2c-5.5,0-10.4-2.1-14-5.7L62.1,56.6z"/>
<path fill="#27AAE1" d="M96.5,67.9V73c0,2.3-1.8,4.1-4.1,4.1h-1.7V37.3h4.7l0.4,3.5h0.2c2.5-2.4,6.1-4.2,9.4-4.2
	c7.5,0,11.6,5.7,11.6,14.4c0,9.7-6.1,15.2-12.7,15.2c-2.6,0-5.7-1.3-8.1-3.5L96.5,67.9z M103.3,61.5c4.5,0,7.9-3.7,7.9-10.5
	c0-5.9-2.2-9.7-7.3-9.7c-2.4,0-4.9,1.1-7.5,3.8v13.3C98.9,60.7,101.6,61.5,103.3,61.5z"/>
<path fill="#27AAE1" d="M135.1,36.6c8.3,0,13,5.5,13,13.3c0,1.1-0.2,2.3-0.3,3h-21.3c0.3,5.6,4.5,8.9,10.2,8.9c3,0,5.7-1,8.2-2.4
	l2,3.7c-3,1.8-6.6,3.3-11,3.3c-8.5,0-15.3-5.5-15.3-14.8C120.7,42.2,127.8,36.6,135.1,36.6z M142.8,49c0-5.1-2.7-7.8-7.6-7.8
	c-4.2,0-8,2.9-8.7,7.8H142.8z"/>
<path fill="#27AAE1" d="M167.3,36.6c4.6,0,8.1,1.8,10.4,4l-2.8,3.7c-2.3-1.8-4.5-3-7.3-3c-6.1,0-10.3,4-10.3,10.1
	s4.1,10.1,10.1,10.1c3.4,0,6.2-1.5,8.5-3.3l2.4,3.7c-3.1,2.8-7.2,4.4-11.3,4.4c-8.9,0-15.5-5.4-15.5-14.8S158.7,36.6,167.3,36.6z"/>
<path fill="#27AAE1" d="M178.3,24.6h11.8V56c0,3.9,2.2,5.6,5.3,5.6c1.5,0,3-0.4,5.1-1.2l1.4,4.3c-2.7,0.9-4.6,1.7-7.8,1.7
	c-6.3,0-9.7-3.7-9.7-10.5V29.1h-9.2v-1.3C175.1,26,176.5,24.6,178.3,24.6z"/>
<path fill="#27AAE1" d="M203.3,72.7c3.7,0,6-2.4,7.3-5.4l0.8-2l-12.9-28.1h5.8l6.4,14.7c1,2.5,2.2,5.5,3.3,8.3h0.3
	c1-2.7,2-5.7,2.9-8.3l5.6-14.7h5.4l-12.1,30.1c-2.3,6-5.8,10-12.3,10c-1.4,0-2.9-0.3-3.8-0.6l0.4-1.7
	C200.5,73.7,201.8,72.7,203.3,72.7L203.3,72.7z"/>
<g>
	<path fill="#27AAE1" d="M0,65.5v-6.3h3.8c1.3,0,2.4,1,2.4,2.4v3.8L0,65.5L0,65.5z"/>
	<path fill="#27AAE1" d="M18.3,65.5V47.2H0v-6.3h22.1c1.3,0,2.4,1,2.4,2.4v22.1L18.3,65.5L18.3,65.5z"/>
	<path fill="#27AAE1" d="M36.6,65.5V28.9H0v-6.3h40.4c1.3,0,2.4,1,2.4,2.4v40.4L36.6,65.5L36.6,65.5z"/>
</g>
<path fill="#27AAE1" d="M200.5,60.4l1.9,4.1c-0.2,0.1-0.3,0.1-0.5,0.2L200.5,60.4z"/>
</svg>
